<svg width="223" height="177" viewBox="0 0 223 177" fill="none" xmlns="http://www.w3.org/2000/svg">
<g clip-path="url(#clip0_1_239)">
<path d="M130.29 115.23V112.36H132.43V109.8L135.73 106.82V112.36H138.78V115.23H135.73V124.8C135.73 126.41 137.17 126.34 138.78 125.78V128.73C138.01 128.98 137.13 129.19 136.36 129.19C134.04 129.19 132.43 128.14 132.43 125.26V115.23H130.29ZM145.77 104.75C146.86 104.75 147.74 105.63 147.74 106.71C147.74 107.79 146.86 108.67 145.77 108.67C144.68 108.67 143.81 107.79 143.81 106.71C143.81 105.63 144.69 104.75 145.77 104.75ZM144.19 126.03V115.23H141.56V112.36H147.49V126.03H150.12V128.91H141.56V126.03H144.19ZM75.24 125.93V108.08H72.16V105.1H91.9V112.25H88.95V108.08H78.82V115.16H87.65V118.14H78.82V125.93H88.95V121.58H91.9V128.91H72.16V125.93H75.24ZM111.88 121.44H97.96C98.45 124.67 100.56 126.52 103.64 126.52C105.78 126.52 107.78 125.57 109.01 123.82L111.88 125.08C110.09 127.85 107.11 129.39 103.57 129.39C98.2 129.39 94.35 125.74 94.35 120.62C94.35 115.5 98.73 111.85 103.05 111.85C107.64 111.85 111.88 115.36 111.88 121.42M98.07 119.05H108.55C108.03 116.42 105.71 114.49 103.11 114.49C100.51 114.49 98.55 116.28 98.06 119.05M114.62 128.91V123.23H117.53V123.8C117.81 125.44 119.32 126.46 121.49 126.46C123.66 126.46 124.89 125.65 124.89 124.4C124.89 121.32 119.07 123.28 115.91 120.12C115.14 119.34 114.61 118.18 114.61 116.96C114.61 114.13 117.06 112.09 120.43 112.09C121.93 112.09 123.37 112.44 124.46 113.04V112.37H127.33V117.84H124.46V116.82C123.51 115.42 122.29 114.79 120.6 114.79C118.91 114.79 117.69 115.59 117.69 116.82C117.69 119.59 124.08 117.98 126.81 120.72C127.79 121.71 128.21 123.01 128.21 124.16C128.21 127.17 125.65 129.2 121.86 129.2C120.07 129.2 118.71 128.81 117.51 128.01V128.92H114.6L114.62 128.91ZM211.08 175.21V167.51H208.59V173.42C208.59 176.07 206.67 176.66 205.03 176.66C202.07 176.66 201.31 175.16 201.31 173.41V167.51H200.02V166.22H204.04V167.51H202.84V173.45C202.84 174.92 203.73 175.42 204.89 175.42C206.42 175.42 207.03 174.77 207.03 173.33V167.51H205.83V166.22H213.35L216.03 173.25L218.74 166.22H222.33V167.51H221.09V175.21H222.33V176.49H218.56V175.21H219.67V167.5L216.15 176.61H215.85L212.39 167.52L212.36 175.22H213.47V176.5H209.84V175.22H211.1L211.08 175.21ZM192.13 175.21V167.51H190.8V166.22H199.32V169.31H198.05V167.51H193.68V170.56H197.49V171.84H193.68V175.2H198.05V173.32H199.32V176.48H190.8V175.2H192.13V175.21ZM183.16 176.49V172.77H184.43V173.68C185.08 174.78 185.84 175.37 186.82 175.37C187.86 175.37 188.64 174.63 188.64 173.65C188.64 171.64 185.42 172.33 183.81 170.73C183.42 170.34 183.13 169.73 183.13 168.87C183.13 166.96 184.58 166.06 186.13 166.06C186.95 166.06 187.73 166.33 188.43 166.86V166.18H189.7V169.28H188.43V168.57C187.87 167.75 187.19 167.38 186.25 167.38C185.21 167.38 184.53 167.91 184.53 168.69C184.53 169.04 184.66 169.36 184.88 169.57C185.68 170.37 188.15 170.24 189.34 171.43C189.88 171.98 190.22 172.81 190.22 173.64C190.22 175.38 188.83 176.66 186.97 176.66C186.03 176.66 185.19 176.33 184.44 175.65V176.49H183.17H183.16ZM179.62 167.51H178.42V166.22H182.44V167.51H181.15V173.42C181.15 176.07 179.23 176.66 177.6 176.66C174.64 176.66 173.88 175.16 173.88 173.41V167.51H171.52V173.42C171.52 176.07 169.6 176.66 167.96 176.66C165 176.66 164.24 175.16 164.24 173.41V167.51H162.95V166.22H166.97V167.51H165.78V173.45C165.78 174.92 166.67 175.42 167.84 175.42C169.37 175.42 169.97 174.77 169.97 173.33V167.51H168.78V166.22H176.61V167.51H175.41V173.45C175.41 174.92 176.3 175.42 177.47 175.42C179 175.42 179.6 174.77 179.6 173.33V167.51H179.62ZM151.16 175.21V167.51H149.9V166.22H153.44L156.12 173.25L158.83 166.22H162.41V167.51H161.17V175.21H162.41V176.49H158.65V175.21H159.75V167.5L156.23 176.61H155.93L152.47 167.52L152.44 175.22H153.55V176.5H149.92V175.22H151.18L151.16 175.21ZM142.61 175.21V167.51H141.49V166.22H145.27V167.51H144.15V175.21H145.27V176.49H141.49V175.21H142.61ZM134.73 170.4H136.47C137.92 170.4 138.22 169.58 138.22 168.9C138.22 167.99 137.59 167.51 136.6 167.51H134.72V170.4H134.73ZM133.19 175.21V167.51H131.78V166.22H136.53C138.84 166.22 139.8 167.34 139.8 168.9C139.8 170.22 139.06 171.12 137.68 171.47L139.5 175.21H140.76V176.49H138.53L136.2 171.68H134.73V175.2H136.06V176.48H131.78V175.2H133.19V175.21ZM123.89 175.21V167.51H121.18V176.6H119.56L114.69 167.83L114.66 175.21H116.14V176.49H111.92V175.21H113.39V167.51H111.92V166.22H115.43L119.88 174.21L119.91 167.51H118.47V166.22H131.07V169.31H129.8V167.51H125.43V170.56H129.24V171.84H125.43V175.2H129.8V173.32H131.07V176.48H122.55V175.2H123.88L123.89 175.21ZM102.79 171.36C102.79 173.57 104.36 175.29 106.4 175.29C108.44 175.29 110.02 173.57 110.02 171.36C110.02 169.15 108.45 167.41 106.4 167.41C104.35 167.41 102.79 169.14 102.79 171.36ZM101.1 171.36C101.1 168.26 103.33 166.05 106.41 166.05C109.49 166.05 111.72 168.27 111.72 171.36C111.72 174.45 109.5 176.65 106.41 176.65C103.32 176.65 101.1 174.46 101.1 171.36ZM93.2 167.51V175.21H95.02C97.86 175.21 98.76 173.47 98.76 171.31C98.76 169.15 97.67 167.51 95.05 167.51H93.2ZM91.65 167.51H90.26V166.22H95.09C99.07 166.22 100.32 168.79 100.32 171.26C100.32 174.57 98.64 176.49 94.95 176.49H90.26V175.21H91.65V167.51ZM86.77 175.21V167.51H85.65V166.22H89.43V167.51H88.31V175.21H89.43V176.49H85.65V175.21H86.77ZM81.25 171.68L79.89 167.37L78.33 171.68H81.25ZM81.64 172.88H77.95L77.15 175.21H78.41V176.49H74.36V175.21H75.6L78.41 167.38H77.2V166.23H82.45V167.38H81.24L84.01 175.21H85.16V176.49H81.14V175.21H82.41L81.65 172.88H81.64ZM68.17 175.21V167.51H66.81V166.22H71.01V167.51H69.71V175.21H72.92V171.72H74.34V176.5H66.81V175.22H68.17V175.21ZM56.51 175.21V167.51H55.15V166.22H59.36V167.51H58.06V175.21H61.27V171.72H62.69V176.5H55.16V175.22H56.52L56.51 175.21ZM50.85 171.68L49.49 167.37L47.93 171.68H50.85ZM51.24 172.88H47.55L46.75 175.21H48.01V176.49H42.64L40.31 171.68H38.84V175.2H40.17V176.48H35.89V175.2H37.3V167.5H35.89V166.21H40.64C42.96 166.21 43.91 167.33 43.91 168.89C43.91 170.21 43.17 171.11 41.79 171.46L43.61 175.2H45.2L48.01 167.37H46.8V166.22H52.05V167.37H50.84L53.61 175.2H54.76V176.48H50.74V175.2H52.01L51.25 172.87L51.24 172.88ZM38.84 170.4H40.58C42.03 170.4 42.33 169.58 42.33 168.9C42.33 167.99 41.7 167.51 40.71 167.51H38.83V170.4H38.84ZM28.4 167.51V175.21H30.21C33.05 175.21 33.95 173.47 33.95 171.31C33.95 169.15 32.86 167.51 30.25 167.51H28.4ZM26.86 167.51H25.47V166.22H30.3C34.28 166.22 35.53 168.79 35.53 171.26C35.53 174.57 33.85 176.49 30.16 176.49H25.47V175.21H26.86V167.51ZM16.08 175.21V167.51H14.61V166.22H18.12L22.57 174.21L22.6 167.51H21.16V166.22H25.38V167.51H23.87V176.6H22.25L17.38 167.83L17.35 175.21H18.83V176.49H14.61V175.21H16.08ZM11.25 175.21V167.51H10.13V166.22H13.91V167.51H12.79V175.21H13.91V176.49H10.13V175.21H11.25ZM3.23 171.06L6.51 167.51H5.33V166.22H9.35V167.51H8.26L5.11 171.06L8.35 175.2H9.45V176.48H5.27V175.2H6.38L3.22 171.06H3.23ZM1.62 175.21V167.51H0.33V166.22H4.49V167.51H3.16V175.21H4.34V176.49H0.33V175.21H1.61H1.62ZM196.15 152.71V141.91H193.38V139.03H199.45V141.1C201.38 139.56 203.24 138.75 205.06 138.75C206.88 138.75 208.36 139.66 209.06 141.34C211.45 139.48 213.13 138.75 215.02 138.75C217.76 138.75 219.44 140.43 219.44 143.31V152.71H222.28V155.58H216.15V144.04C216.15 142.43 215.41 141.62 214.15 141.62C212.82 141.62 211.1 142.43 209.45 143.79V152.7H212.29V155.57H206.15V144.1C206.15 142.35 205.17 141.75 204.12 141.75C202.93 141.75 201.45 142.38 199.46 143.78V152.69H202.3V155.56H193.15V152.69H196.17L196.15 152.71ZM190.71 152.71V155.58H184.57V153.69C182.71 155.13 180.89 155.86 179.17 155.86C176.15 155.86 174.58 154.21 174.58 150.74V141.91H172.23V139.03H177.88V150.57C177.88 152.25 178.58 152.99 179.84 152.99C181.21 152.99 183.1 152.18 184.57 150.88V141.91H181.73V139.03H187.87V152.71H190.71ZM157.3 145.73H167.78C167.26 143.1 164.94 141.17 162.35 141.17C159.76 141.17 157.79 142.96 157.3 145.73ZM171.11 148.12H157.19C157.68 151.34 159.78 153.2 162.87 153.2C165.01 153.2 167.01 152.25 168.23 150.5L171.1 151.76C169.31 154.53 166.33 156.07 162.79 156.07C157.43 156.07 153.57 152.42 153.57 147.3C153.57 142.18 157.95 138.54 162.27 138.54C166.86 138.54 171.1 142.05 171.1 148.11M137.7 155.59V149.91H140.61V150.48C140.89 152.12 142.4 153.14 144.57 153.14C146.74 153.14 147.97 152.34 147.97 151.08C147.97 147.99 142.15 149.96 138.99 146.79C138.22 146.01 137.69 144.85 137.69 143.63C137.69 140.8 140.14 138.76 143.51 138.76C145.02 138.76 146.46 139.11 147.54 139.71V139.04H150.42V144.51H147.54V143.49C146.59 142.09 145.37 141.46 143.69 141.46C142.01 141.46 140.78 142.26 140.78 143.49C140.78 146.26 147.16 144.64 149.9 147.39C150.88 148.38 151.3 149.68 151.3 150.83C151.3 153.84 148.74 155.87 144.95 155.87C143.16 155.87 141.8 155.49 140.6 154.68V155.59H137.69H137.7ZM134.82 152.71V155.58H128.68V153.69C126.82 155.13 125 155.86 123.28 155.86C120.26 155.86 118.69 154.21 118.69 150.74V141.91H116.34V139.03H121.98V150.57C121.98 152.25 122.68 152.99 123.94 152.99C125.31 152.99 127.2 152.18 128.68 150.88V141.91H125.84V139.03H131.98V152.71H134.82ZM115.08 152.71V155.58H108.94V153.69C107.08 155.13 105.26 155.86 103.54 155.86C100.52 155.86 98.94 154.21 98.94 150.74V141.91H96.59V139.03H102.23V150.57C102.23 152.25 102.93 152.99 104.19 152.99C105.56 152.99 107.45 152.18 108.92 150.88V141.91H106.08V139.03H112.22V152.71H115.06H115.08ZM69.35 152.71V141.91H66.58V139.03H72.65V141.1C74.58 139.56 76.44 138.75 78.26 138.75C80.08 138.75 81.56 139.66 82.26 141.34C84.65 139.48 86.33 138.75 88.22 138.75C90.96 138.75 92.64 140.43 92.64 143.31V152.71H95.48V155.58H89.35V144.04C89.35 142.43 88.61 141.62 87.35 141.62C86.02 141.62 84.3 142.43 82.65 143.79V152.7H85.49V155.57H79.35V144.1C79.35 142.35 78.37 141.75 77.32 141.75C76.13 141.75 74.65 142.38 72.66 143.78V152.69H75.5V155.56H66.35V152.69H69.37L69.35 152.71ZM57.95 151.38V149.42C56.55 148.33 55.07 147.77 53.67 147.77C51.85 147.77 50.51 148.96 50.51 150.61C50.51 152.26 51.74 153.35 53.49 153.35C54.96 153.35 56.61 152.61 57.94 151.39M64.08 152.71V155.58H58.33V153.55C56.26 155.23 54.82 155.86 53 155.86C49.85 155.86 47.39 153.55 47.39 150.6C47.39 147.65 50.02 145.23 53.42 145.23C54.89 145.23 56.61 145.76 57.94 146.63V144.46C57.94 142.11 56.22 141.27 54.26 141.27C52.68 141.27 51.45 141.94 50.72 143.23L47.6 142.38C49 139.82 51.39 138.53 54.75 138.53C59.59 138.53 61.24 140.95 61.24 143.61V152.69H64.08V152.71ZM41.93 131.43C43.02 131.43 43.89 132.31 43.89 133.39C43.89 134.47 43.01 135.36 41.93 135.36C40.85 135.36 39.97 134.48 39.97 133.39C39.97 132.3 40.85 131.43 41.93 131.43ZM35.87 162.85V159.9C36.54 160.01 36.92 160.04 37.48 160.04C39.76 160.04 40.39 158.99 40.39 156.64V141.91H37.83V139.03H43.69V155.48C43.69 159.34 43.48 163.02 37.76 163.02C37.06 163.02 36.53 162.98 35.87 162.84M22.34 147.31C22.34 150.54 24.58 152.92 27.53 152.92C30.48 152.92 32.76 150.54 32.76 147.31C32.76 144.08 30.52 141.7 27.53 141.7C24.54 141.7 22.34 144.12 22.34 147.31ZM18.83 147.31C18.83 142.3 22.55 138.55 27.56 138.55C32.57 138.55 36.26 142.3 36.26 147.31C36.26 152.32 32.51 156.08 27.53 156.08C22.55 156.08 18.83 152.33 18.83 147.31ZM31.31 131.78H33.2C33.2 134.65 32.11 136.51 30.08 136.51C28.05 136.51 26.08 134.37 24.82 134.37C24.01 134.37 23.84 135.07 23.84 136.26H21.88C21.88 132.96 23.35 131.67 25 131.67C26.86 131.67 28.96 133.77 30.09 133.77C30.9 133.77 31.28 133.14 31.32 131.77M0.07 155.59V146.97H3.02V149.07C4.53 151.63 6.28 153 8.56 153C10.98 153 12.77 151.28 12.77 149C12.77 144.34 5.3 145.95 1.58 142.23C0.67 141.32 0 139.92 0 137.92C0 133.5 3.37 131.4 6.94 131.4C8.83 131.4 10.66 132.03 12.27 133.26V131.68H15.22V138.87H12.27V137.22C10.97 135.32 9.39 134.45 7.22 134.45C4.8 134.45 3.22 135.68 3.22 137.5C3.22 138.31 3.54 139.04 4.03 139.53C5.89 141.39 11.6 141.07 14.38 143.84C15.64 145.1 16.41 147.03 16.41 148.96C16.41 152.99 13.18 155.97 8.87 155.97C6.7 155.97 4.73 155.2 3.01 153.62V155.58H0.07V155.59Z" fill="#1D1D1B"/>
<path fill-rule="evenodd" clip-rule="evenodd" d="M91.15 33.71C91.15 33.53 91.2 33.36 91.29 33.22C91.62 32.65 92.08 32.17 92.67 31.79L91.06 31.67V32.12C90.51 32.35 90.36 32.05 90.36 31.62L88.64 31.59V29.56L90.34 29.61C90.41 29.1 90.52 29 90.72 29C90.97 29.02 91.11 29.2 91.15 29.53L92.89 29.56C93.02 29.12 93.03 28.98 93.38 28.98C93.61 29.02 93.73 29.2 93.74 29.53L94.81 29.55L94.83 28.11C94.48 27.9 93.58 27.31 93.52 26.04C93.6 23.72 95.69 23.43 96.07 23.45C96.42 23.43 98.53 23.45 98.64 25.93C98.64 27.46 97.66 27.96 97.48 28.04L97.28 29.56H98.48C98.53 29.01 98.95 28.87 99.1 29.13L99.19 29.57L101.08 29.54C101.16 29.09 101.28 28.99 101.5 28.99C101.81 29.02 101.96 29.21 101.93 29.56L103.58 29.6V31.61L101.88 31.72C101.83 32.32 101.72 32.44 101.49 32.42C101.16 32.4 101.15 31.94 101.15 31.66L99.5 31.78C100.25 32.24 100.78 32.8 101.07 33.46C100.69 33.46 100.55 33.47 100.19 33.75C100 34.03 99.82 34.32 99.73 34.67L99.63 35.24V35.73C99.66 36.33 99.76 36.78 99.86 37.2L100.11 37.84C100.22 38.04 100.34 38.23 100.47 38.41L100.93 39.01L100.68 39.94C100.48 40.32 100.41 40.46 100.29 40.63C99.73 41.31 99.22 41.51 98.58 41.7L97.94 41.84L97.3 42.01V43.57C98.16 43.43 100.57 43 101.83 41.6L102.27 41.12L101.49 40.98C101.49 40.98 102.8 39.61 103.13 39.19C104 38.09 104.47 36.79 104.77 35.49C106.09 37.09 105.51 41.71 104.09 43.18L103.94 42.56L103.72 41.84L103.3 42.47C102.3 43.96 100.94 44.79 99.6 45.44C99.04 45.71 98.37 45.99 97.74 46.31C97.21 46.57 96.68 46.88 96.24 47.26C95.86 46.91 95.48 46.67 95.08 46.47C94.62 46.25 94.13 46.08 93.56 45.84C92.47 45.39 91.09 44.67 89.12 42.79L88.69 42.38L88.53 42.95C86.74 41.76 86 37.48 87.67 35.7C87.8 38.08 89.4 39.74 91.09 41.01L90.06 41.12L90.64 41.66C91.6 42.56 92.93 43.4 94.34 43.57L94.99 43.63L94.96 41.97C94.37 41.83 94.05 41.78 93.73 41.69L93.19 41.51L92.6 41.22C92.43 41.1 92.27 40.96 92.13 40.8C91.88 40.47 91.8 40.36 91.73 40.21L91.41 39.49L91.37 38.77L91.87 38.26L92.16 37.8L92.44 37.02C92.55 36.45 92.61 36.19 92.62 35.94L92.64 35.21C92.64 34.91 92.57 34.6 92.47 34.34C92.39 34.09 92.32 33.96 92.12 33.68C92.01 33.63 91.66 33.36 91.18 33.68M97.25 26.32L97.37 25.84C97.4 25.33 97.03 25.01 96.76 24.87C96.5 24.73 96.17 24.73 96.12 24.72C96.07 24.72 95.68 24.69 95.4 24.83C95.1 24.98 94.79 25.38 94.78 25.92L94.87 26.42C95.6 26.07 96.39 26.03 97.25 26.31M126.08 44.22L127.59 43.3L126.07 42.45V44.22H126.08ZM134.63 25.91L134.25 26.89L134.16 27.62L133.89 28.2C133.84 29.1 133.69 29.42 133.48 29.67C133.64 30.18 133.5 30.38 133.35 30.57L133.3 31.08C133.2 31.34 133.07 31.51 132.94 31.64C132.53 32.54 132.32 32.87 131.98 33.09C131.87 33.65 131.58 33.9 131.22 34.07C131.23 34.72 131.07 34.81 130.93 34.87C130.93 35.06 131.03 35.24 131.09 35.43C130.84 35.98 130.94 36.11 131 36.25C130.92 36.59 130.76 36.68 130.59 36.73C130.77 37.16 130.85 37.3 130.81 37.45C130.52 37.72 130.43 37.74 130.35 37.74C130.31 38.02 130.42 38.37 130.35 38.76C130.06 38.91 129.93 38.9 129.82 38.87C129.94 39.44 129.95 39.72 129.82 39.96C129.5 40.04 129.36 40.01 129.22 39.97C129.25 40.57 129.23 40.84 129.1 41.04L128.51 40.93C128.48 41.29 128.46 41.41 128.41 41.5L127.87 41.69L129.92 43.26L128.17 44.23C128.23 44.47 128.15 44.79 127.85 44.85C127.78 45.01 127.64 45.17 127.4 45.21L126.93 45.31C126.63 45.33 126.52 45.26 126.44 45.18L125.84 45.51C126.53 45.84 127.21 46.23 127.62 46.91C127.34 47.22 127.09 47.23 126.76 47.21C126.26 47.16 125.82 47.03 125.42 46.87C125.03 46.71 124.67 46.52 124.3 46.34L122.31 45.37C122.21 45.7 122.14 45.85 122.01 45.96C121.56 45.94 121.47 46.08 121.32 46.17C120.81 46.06 120.67 46.15 120.5 46.19C119.99 46.01 119.86 46.08 119.7 46.11C119.43 45.96 119.4 45.79 119.37 45.68C118.94 45.7 118.73 45.73 118.53 45.68C118.28 45.36 118.11 45.37 117.96 45.29C117.77 44.98 117.62 44.99 117.47 44.97L118.17 43.8C118.39 43.41 118.35 43.39 118.31 43.36C118.1 42.71 118.32 42.62 118.48 42.61C119 42.4 119.09 42.32 119.19 42.28L119.81 42.24C119.92 41.9 119.99 41.79 120.07 41.71L119.77 40.77C119.6 40.95 119.44 41.06 119.2 41.09C119 40.7 118.97 40.45 118.96 40.2C118.78 40.32 118.6 40.41 118.36 40.4L118.2 39.54C118.04 39.65 117.88 39.74 117.66 39.75L117.57 38.99C117.06 38.32 117.09 37.94 117.14 37.61C116.74 37.17 116.79 36.92 116.84 36.69C116.6 35.96 116.67 35.7 116.74 35.48L116.46 34.72C116.59 34.17 116.65 34.06 116.71 33.95L116.2 33.84L116.37 33.29C116 33.12 115.88 33.06 115.74 33.02L115.8 32.55C115.42 32.43 115.22 32.35 115.12 32.17C114.93 31.66 114.74 31.6 114.62 31.45C114.51 30.92 114.26 30.74 114.1 30.46L114.04 29.75C113.88 29.59 113.71 29.41 113.6 29.21C113.67 28.62 113.44 28.26 113.34 27.81C113.4 27.3 113.27 26.97 113.17 26.61C113.13 25.95 113.03 25.71 112.99 25.45L113.05 24.97C112.93 24.71 112.82 24.41 112.82 24.03L112.89 23.51C113.41 23.92 113.71 24.22 114.04 24.53L114.54 25L115.13 25.43C115.46 25.91 115.85 26.29 116.28 26.65C116.72 27.01 117.19 27.34 117.63 27.69C118.27 28.05 118.44 28.27 118.73 28.5C119.02 28.73 119.34 28.95 119.64 29.22L120.47 29.98C120.76 30.25 121.06 30.53 121.23 30.92C121.43 31.34 121.54 31.72 121.52 32.25C121.5 32.5 121.41 32.88 121.4 33.13C121.38 33.37 121.38 33.61 121.4 33.85C121.48 34.45 121.85 34.86 122.29 35.13C122.45 35.23 122.65 35.32 122.79 35.31L123.25 35.13C123.88 34.64 124.12 34.36 124.17 34.05L123.82 33.46C123.52 33.35 123.3 33.32 123.34 33.02C124.07 33.2 123.81 32.07 123.1 32.89C122.55 32.11 123.85 31.9 124.05 31.95L124.67 31.85C125.46 31.89 125.89 32.57 126.13 33.03C126.35 33.42 126.48 33.85 126.54 34.32C126.62 34.14 126.68 33.96 126.74 33.8C126.88 33.44 126.98 33.08 127 32.68C127.02 32.42 127.01 32.24 127.05 32.03C127.08 31.82 127.16 31.44 127.27 31.25C127.45 30.93 127.67 30.75 127.96 30.51C128.23 30.27 128.54 30.12 128.82 29.92L129.67 29.33L130.81 28.32C131.45 27.67 131.38 27.62 131.67 27.31L132.19 26.79C132.49 26.5 133.5 25.37 133.58 25.23L134.06 25L134.66 24.17L135.01 23.7L134.99 24.28C134.98 24.63 134.99 24.91 134.97 25.19C134.94 25.41 134.83 25.62 134.72 25.79L134.61 25.94L134.63 25.91ZM123.83 42.72L123.35 42.31C123.08 42.31 122.89 42.68 122.75 43.02C122.6 43.4 122.46 43.79 122.44 44.18C123.23 44.47 123.98 44.76 124.74 45.07L124.77 42.94C124.48 43.23 124.32 43.33 124.15 43.29L123.85 42.71L123.83 42.72ZM81.85 22.16C81.95 36.75 84.11 48.71 88.44 57.96L108.73 43.37V17.93C99.88 18.04 91.02 19.45 81.85 22.16ZM89.4 59.89C94.02 68.72 100.78 74.86 109.8 78.26C118.82 74.86 125.58 68.72 130.2 59.89L109.8 45.24L89.4 59.89ZM131.15 57.96C135.48 48.71 137.64 36.75 137.74 22.16C128.57 19.45 119.71 18.04 110.86 17.93V43.37L131.15 57.96ZM87.16 18.54C92.27 17.33 97.25 16.51 102.17 16.1L102.71 13.84C103.83 8.99003 98.17 8.37003 98.17 8.37003C94.59 7.78003 95.07 10.85 95.07 10.85C88.66 2.54003 99.39 2.30003 103.52 2.02003C104.25 -1.11997 110.33 0.0400285 113.52 1.22003C116.88 2.47003 118.03 12.45 118.33 16.17C122.91 16.6 127.55 17.38 132.29 18.5C134.34 17.12 136.94 16.18 140.39 15.63C150.03 14.1 155.78 15.67 171.4 13.67C188.35 11.5 204.34 3.71003 204.34 3.71003C204.25 6.48003 203.89 10.28 199.28 12.12C187.8 16.71 175.47 19.48 162.74 21.16C160.77 21.42 160.85 22.51 160.91 23.43C175.65 21.62 189.99 18.41 203.18 12.68C202.4 15.85 200.97 18.44 197.45 19.92C186.11 24.66 174.54 26.97 160.88 28.53C159.21 28.72 159.27 29.51 159.3 30.74C174.41 29.1 187.08 26.66 199.62 21.19C196.93 25.37 193.09 28.46 188.1 30.45C179.07 33.31 169.64 34.65 158.24 35.78C156.59 35.94 156.59 36.9 156.56 37.98C166.31 37.05 174.69 36.01 182.6 34.08C181.54 36.48 179.33 39.64 175.04 40.34C168.21 41.46 161.53 41.95 155.68 41.63C153.96 41.54 153.91 42.46 153.66 43.52C160.63 44.12 168.86 43.52 177.18 42.02C174.85 44.36 171.84 48.03 164.51 47.97C159.89 47.94 156.58 47.75 152.79 46.79C151.38 46.43 150.47 47.19 150 48.12C153.92 49.3 157.89 49.81 162.38 49.95C161.53 51.33 159.68 53.65 156.6 52.86C153.92 52.16 151.83 51.56 149.8 50.61C148.2 49.86 147.28 50.66 146.81 51.33C149.64 52.98 153.87 54.33 158.06 55.29C157.23 56.12 154.99 57.36 152.6 56.48C150.17 55.59 148.43 54.87 146.66 53.92C145.35 53.22 144.3 53.91 143.75 54.62C146.09 56.04 149.88 57.74 153.7 59.01C152.99 59.52 149.58 60.38 147.67 59.48C145.76 58.58 144.62 58.03 143.21 57.2C141.9 56.43 140.62 57.05 140.1 57.65C141.95 58.84 145.06 60.57 148.34 62.01C146.05 62.96 143.16 62.7 140.21 60.89C139.65 60.55 139.51 60.52 138.93 60.13C137.65 59.27 136.52 60.13 136.13 60.61C137.89 61.83 139.33 62.78 140.98 63.66C138.06 63.77 134.92 63.23 131.63 61.77C130.48 63.86 129.17 65.85 127.69 67.73L129.89 69.17L128.41 70.6L130.63 72.19C135.45 70.06 139.36 72.94 138.17 78.05C136.63 74.58 134.8 73.54 132.32 74.28C134.7 75.68 135.74 77.75 134.7 81.47C133.36 77.31 130.55 75.71 129.29 76.21C126.91 77.16 128.18 78.79 129.44 80.58C124.93 79.98 124.78 75.77 127.21 73.54L126.47 72.49L124.93 73.98L123.74 72.05C119.98 75.6 115.4 78.51 109.81 80.56C104.16 78.49 99.54 75.54 95.76 71.95L94.51 73.99L92.97 72.5L92.23 73.55C94.66 75.78 94.51 80 90 80.59C91.26 78.8 92.53 77.17 90.15 76.22C88.89 75.72 86.08 77.32 84.74 81.48C83.7 77.76 84.74 75.69 87.12 74.29C84.64 73.55 82.81 74.59 81.27 78.06C80.08 72.95 84 70.07 88.81 72.2L91.03 70.61L89.55 69.18L91.88 67.66C90.41 65.79 89.11 63.8 87.96 61.72C84.62 63.22 81.43 63.78 78.46 63.67C80.11 62.79 81.56 61.84 83.31 60.62C82.92 60.13 81.79 59.28 80.51 60.14C79.93 60.53 79.78 60.56 79.23 60.9C76.28 62.71 73.39 62.97 71.1 62.02C74.39 60.58 77.5 58.85 79.35 57.66C78.83 57.05 77.54 56.44 76.24 57.21C74.83 58.04 73.69 58.59 71.79 59.49C69.88 60.39 66.47 59.53 65.76 59.02C69.58 57.75 73.38 56.05 75.71 54.63C75.16 53.92 74.11 53.24 72.8 53.93C71.03 54.88 69.29 55.6 66.86 56.49C64.47 57.37 62.22 56.13 61.4 55.3C65.58 54.34 69.81 52.99 72.65 51.34C72.18 50.67 71.26 49.87 69.66 50.62C67.63 51.57 65.54 52.17 62.86 52.87C59.78 53.67 57.93 51.34 57.08 49.96C61.56 49.82 65.54 49.31 69.45 48.13C68.98 47.2 68.07 46.45 66.66 46.8C62.87 47.76 59.56 47.94 54.94 47.98C47.61 48.04 44.6 44.37 42.27 42.03C50.59 43.52 58.82 44.13 65.79 43.53C65.54 42.47 65.48 41.55 63.77 41.64C57.92 41.95 51.24 41.47 44.41 40.35C40.12 39.65 37.91 36.49 36.85 34.09C44.75 36.02 53.14 37.05 62.88 37.99C62.85 36.91 62.84 35.96 61.2 35.79C49.8 34.66 40.37 33.32 31.34 30.46C26.36 28.47 22.52 25.38 19.82 21.2C32.36 26.67 45.03 29.11 60.14 30.75C60.17 29.52 60.23 28.73 58.56 28.54C44.9 26.97 33.33 24.67 21.99 19.93C18.47 18.46 17.04 15.87 16.26 12.69C29.45 18.42 43.78 21.62 58.52 23.44C58.58 22.52 58.66 21.43 56.69 21.17C43.96 19.48 31.62 16.71 20.15 12.13C15.55 10.29 15.18 6.50003 15.09 3.72003C15.09 3.72003 31.08 11.51 48.03 13.68C63.64 15.69 69.4 14.11 79.04 15.64C82.52 16.19 85.13 17.14 87.18 18.54M136.4 50.07C136.13 51.01 135.84 51.93 135.53 52.85C137.76 51.6 139.16 49.82 139.8 47.54C147.9 46.75 150.92 40.43 149.66 33.76C153.54 31.29 155.37 27.46 155.17 22.45C153.78 22.8 153.22 23.68 152.99 25.48C152.45 28.7 150.57 31.38 146.26 33.27C148.04 40.95 144.81 45.06 138.55 46.24C138.21 47.94 137.44 49.17 136.4 50.08M84.11 52.97C83.81 52.08 83.52 51.18 83.25 50.27C82.09 49.34 81.23 48.06 80.86 46.23C74.59 45.05 71.36 40.95 73.15 33.26C68.83 31.37 66.96 28.69 66.42 25.47C66.19 23.67 65.63 22.79 64.24 22.44C64.05 27.45 65.87 31.28 69.75 33.75C68.49 40.42 71.52 46.74 79.61 47.53C80.27 49.88 81.75 51.71 84.11 52.96M108.7 60.87L108.76 57.59C108.76 56.56 109.02 55.89 109.69 55.45C110.34 55.9 110.63 56.57 110.65 57.59C110.67 58.47 110.64 59.61 110.64 60.87H109.79V56.51L109.59 60.87H108.7ZM108.83 69.12C109.37 69.08 109.95 69.08 110.51 69.12L110.2 71.82C109.84 71.76 109.5 71.77 109.13 71.82L108.82 69.13L108.83 69.12ZM105.38 68.28L106.04 67.7C108.51 68.63 110.81 68.58 113.26 67.7L113.96 68.29C111.25 69.09 108.36 69.12 105.39 68.29M108.67 72.31C109.02 71.89 110.39 71.88 110.72 72.35C110.81 72.63 110.77 73.07 110.62 73.29C109.97 73.66 109.42 73.68 108.73 73.29C108.58 73.03 108.58 72.61 108.67 72.31ZM109.78 66.88H110.64V68.09C110.36 68.12 110.07 68.14 109.77 68.15V66.89L109.78 66.88ZM108.73 66.88H109.61V68.14C109.32 68.14 109.03 68.12 108.73 68.08V66.88ZM101.54 59.7H102.21V61.12H105.25L105.27 59.72H108.1V61.15H111.15V59.72H114.08V61.15H117.13V59.72H117.81C117.78 62.11 117.59 64.5 117.13 66.63L102.28 66.66C101.74 64.49 101.59 62.13 101.54 59.71M118.96 54.3C118.97 68.41 118.22 71.06 109.92 75.17C100.9 70.9 100.47 68.19 100.47 54.71L118.97 54.3H118.96Z" fill="#1D1D1B"/>
<path fill-rule="evenodd" clip-rule="evenodd" d="M92.21 97.52H97.92V95.65H96.39V85.86H92.11V87.73H93.83V95.65H92.21V97.52ZM100.8 94.54C100.97 96.5 102.14 97.67 104.1 97.67C107.04 97.67 108.45 95.49 108.45 91.55C108.45 87.61 107.09 85.65 104.24 85.65C102.01 85.65 100.67 87.01 100.67 89.77C100.67 92.04 102.06 93.28 103.87 93.28C104.71 93.28 105.33 93.06 105.93 92.52C105.91 94.74 105.16 95.84 104.19 95.84C103.31 95.84 103.04 95.14 102.82 94.36L100.81 94.53L100.8 94.54ZM105.92 90.9C105.46 91.23 104.96 91.4 104.46 91.4C103.58 91.4 103.03 90.68 103.03 89.53C103.03 88.27 103.49 87.55 104.29 87.55C105.51 87.55 105.9 88.86 105.92 90.9ZM111.18 97.52H116.89V95.65H115.36V85.86H111.08V87.73H112.8V95.65H111.18V97.52ZM119.77 94.54C119.94 96.5 121.11 97.67 123.07 97.67C126.01 97.67 127.42 95.49 127.42 91.55C127.42 87.61 126.06 85.65 123.21 85.65C120.98 85.65 119.63 87.01 119.63 89.77C119.63 92.04 121.02 93.28 122.83 93.28C123.67 93.28 124.29 93.06 124.89 92.52C124.87 94.74 124.11 95.84 123.15 95.84C122.27 95.84 122 95.14 121.78 94.36L119.77 94.53V94.54ZM124.9 90.9C124.43 91.23 123.94 91.4 123.44 91.4C122.56 91.4 122.02 90.68 122.02 89.53C122.02 88.27 122.48 87.55 123.27 87.55C124.49 87.55 124.89 88.86 124.9 90.9Z" fill="#1D1D1B"/>
</g>
<defs>
<clipPath id="clip0_1_239">
<rect width="222.34" height="176.66" fill="white"/>
</clipPath>
</defs>
</svg>
