<svg width="482" height="116" viewBox="0 0 482 116" fill="none" xmlns="http://www.w3.org/2000/svg">
<g clip-path="url(#clip0_1_2)">
<path d="M463.64 91.76H462.26V90.27H466.91V91.76H465.42V98.59C465.42 101.65 463.2 102.33 461.31 102.33C457.89 102.33 457.01 100.6 457.01 98.57V91.75H455.53V90.26H460.18V91.75H458.8V98.62C458.8 100.32 459.83 100.89 461.18 100.89C462.95 100.89 463.64 100.14 463.64 98.48V91.75M446.41 100.66V91.77H444.87V90.28H454.71V93.84H453.24V91.76H448.19V95.29H452.59V96.78H448.19V100.66H453.24V98.49H454.71V102.14H444.87V100.65H446.41V100.66ZM435.69 102.14V97.84H437.16V98.89C437.91 100.16 438.79 100.85 439.92 100.85C441.13 100.85 442.02 99.99 442.02 98.86C442.02 96.54 438.3 97.34 436.45 95.49C436 95.04 435.66 94.34 435.66 93.34C435.66 91.14 437.34 90.09 439.12 90.09C440.06 90.09 440.97 90.4 441.78 91.02V90.23H443.25V93.81H441.78V92.99C441.13 92.05 440.35 91.61 439.26 91.61C438.05 91.61 437.27 92.22 437.27 93.13C437.27 93.53 437.43 93.9 437.67 94.14C438.59 95.07 441.44 94.91 442.82 96.29C443.45 96.92 443.83 97.88 443.83 98.84C443.83 100.85 442.22 102.34 440.07 102.34C438.99 102.34 438.01 101.96 437.15 101.17V102.15H435.68L435.69 102.14ZM431.61 91.76H430.23V90.27H434.88V91.76H433.4V98.59C433.4 101.65 431.18 102.33 429.29 102.33C425.87 102.33 424.99 100.6 424.99 98.57V91.75H423.5V90.26H428.15V91.75H426.77V98.62C426.77 100.32 427.8 100.89 429.15 100.89C430.91 100.89 431.61 100.14 431.61 98.48V91.75V91.76ZM409.85 100.66V91.77H408.4V90.28H412.49L415.58 98.41L418.71 90.28H422.85V91.77H421.42V100.66H422.85V102.15H418.5V100.66H419.78V91.75L415.71 102.27H415.36L411.36 91.77L411.33 100.66H412.61V102.15H408.41V100.66H409.86H409.85ZM396.69 95.1H398.7C400.38 95.1 400.73 94.16 400.73 93.37C400.73 92.32 400 91.76 398.86 91.76H396.69V95.1ZM394.91 100.66V91.77H393.29V90.28H398.78C401.45 90.28 402.56 91.57 402.56 93.37C402.56 94.89 401.7 95.94 400.11 96.34L402.21 100.66H403.66V102.15H401.09L398.4 96.59H396.7V100.66H398.24V102.15H393.29V100.66H394.91ZM384.16 100.66V91.77H382.62V90.28H392.46V93.84H390.99V91.76H385.94V95.29H390.34V96.78H385.94V100.66H390.99V98.49H392.46V102.14H382.62V100.65H384.16V100.66ZM371.33 100.66V91.77H369.63V90.28H373.68L378.82 99.51L378.86 91.77H377.2V90.28H382.08V91.77H380.33V102.27H378.46L372.83 92.13L372.79 100.66H374.5V102.15H369.62V100.66H371.32H371.33ZM358.39 96.22C358.39 98.77 360.21 100.76 362.57 100.76C364.93 100.76 366.75 98.77 366.75 96.22C366.75 93.67 364.93 91.66 362.57 91.66C360.21 91.66 358.39 93.65 358.39 96.22ZM356.43 96.22C356.43 92.64 359 90.09 362.56 90.09C366.12 90.09 368.69 92.66 368.69 96.22C368.69 99.78 366.12 102.34 362.56 102.34C359 102.34 356.43 99.81 356.43 96.22ZM346.43 91.76V100.65H348.53C351.82 100.65 352.85 98.64 352.85 96.14C352.85 93.64 351.59 91.75 348.57 91.75H346.44L346.43 91.76ZM344.65 91.76H343.04V90.27H348.61C353.21 90.27 354.65 93.24 354.65 96.09C354.65 99.92 352.71 102.14 348.45 102.14H343.03V100.65H344.64V91.76H344.65ZM339.18 100.66V91.77H337.89V90.28H342.26V91.77H340.97V100.66H342.26V102.15H337.89V100.66H339.18ZM332.98 96.59L331.41 91.61L329.61 96.59H332.98ZM333.43 97.97H329.17L328.24 100.66H329.69V102.15H325.01V100.66H326.44L329.69 91.61H328.29V90.28H334.35V91.61H332.95L336.15 100.66H337.48V102.15H332.83V100.66H334.3L333.43 97.97ZM317.86 100.66V91.77H316.29V90.28H321.15V91.77H319.65V100.66H323.35V96.62H324.99V102.14H316.29V100.65H317.86V100.66ZM304.39 100.66V91.77H302.82V90.28H307.68V91.77H306.18V100.66H309.89V96.62H311.53V102.14H302.83V100.65H304.4L304.39 100.66ZM298.2 96.59L296.63 91.61L294.83 96.59H298.2ZM298.66 97.97H294.4L293.47 100.66H294.92V102.15H287.84L285.15 96.59H283.46V100.66H285V102.15H280.05V100.66H281.67V91.77H280.05V90.28H285.54C288.21 90.28 289.31 91.57 289.31 93.37C289.31 94.89 288.45 95.94 286.86 96.34L288.96 100.66H291.67L294.92 91.61H293.52V90.28H299.58V91.61H298.18L301.38 100.66H302.71V102.15H298.06V100.66H299.53L298.66 97.97ZM283.46 95.1H285.47C287.15 95.1 287.5 94.16 287.5 93.37C287.5 92.32 286.77 91.76 285.63 91.76H283.46V95.1ZM270.93 100.66V91.77H269.39V90.28H279.23V93.84H277.76V91.76H272.71V95.29H277.11V96.78H272.71V100.66H277.76V98.49H279.23V102.14H269.39V100.65H270.93V100.66ZM258.1 100.66V91.77H256.41V90.28H260.46L265.6 99.51L265.64 91.77H263.98V90.28H268.85V91.77H267.1V102.27H265.23L259.6 92.13L259.57 100.66H261.28V102.15H256.41V100.66H258.1ZM247.44 100.66V91.77H245.9V90.28H255.74V93.84H254.27V91.76H249.22V95.29H253.62V96.78H249.22V100.66H254.27V98.49H255.74V102.14H245.9V100.65H247.44V100.66ZM240.22 96.41H244.55C244.65 100.74 241.61 102.35 238.52 102.35C233.47 102.35 232.21 98.49 232.21 96.16C232.21 93.4 233.87 90.08 238.2 90.08C239.9 90.08 241.12 90.53 242.36 91.58V90.27H243.88V94.17H242.36C241.68 92.67 240.09 91.65 238.36 91.65C235.88 91.65 234.17 93.5 234.17 96.18C234.17 98.86 236 100.76 238.54 100.76C240.51 100.76 242.09 99.57 242.37 97.89H240.22V96.4V96.41ZM469 100.66V91.77H467.55V90.28H471.64L474.73 98.41L477.86 90.28H482V91.77H480.57V100.66H482V102.15H477.65V100.66H478.92V91.75L474.85 102.27H474.5L470.5 91.77L470.47 100.66H471.74V102.15H467.55V100.66H469ZM360.41 35.44V33.12C358.75 31.84 357.01 31.17 355.36 31.17C353.21 31.17 351.63 32.58 351.63 34.53C351.63 36.48 353.08 37.76 355.15 37.76C356.89 37.76 358.84 36.89 360.41 35.44ZM367.66 37.01V40.41H360.87V38.01C358.42 40 356.73 40.74 354.57 40.74C350.84 40.74 347.94 38.01 347.94 34.53C347.94 31.05 351.05 28.19 355.06 28.19C356.8 28.19 358.83 28.81 360.4 29.85V27.28C360.4 24.5 358.37 23.51 356.05 23.51C354.19 23.51 352.74 24.3 351.87 25.83L348.18 24.84C349.84 21.81 352.65 20.28 356.63 20.28C362.35 20.28 364.29 23.14 364.29 26.29V37.02H367.65L367.66 37.01ZM339.99 11.87C341.27 11.87 342.31 12.9 342.31 14.19C342.31 15.48 341.27 16.51 339.99 16.51C338.71 16.51 337.67 15.47 337.67 14.19C337.67 12.91 338.71 11.87 339.99 11.87ZM338.12 37.01V24.25H335.01V20.85H342.01V37.01H345.12V40.41H335.01V37.01H338.12ZM318.73 20.86V23.22C321.34 21.31 323.33 20.53 325.4 20.53C328.18 20.53 330.54 22.23 330.54 26.08V37.02H333.9V40.42H326.65V27.62C326.65 25.13 325.94 24.06 324.37 24.06C322.8 24.06 320.72 24.97 318.74 26.55V37.03H322.1V40.43H311.5V37.03H314.85V24.27H311.41V20.87H318.74L318.73 20.86ZM292.26 30.63C292.26 34.44 294.91 37.26 298.39 37.26C301.87 37.26 304.56 34.44 304.56 30.63C304.56 26.82 301.91 24 298.39 24C294.87 24 292.26 26.86 292.26 30.63ZM288.12 30.63C288.12 24.71 292.51 20.28 298.44 20.28C304.37 20.28 308.71 24.71 308.71 30.63C308.71 36.55 304.28 40.99 298.39 40.99C292.5 40.99 288.12 36.56 288.12 30.63ZM275.28 24.25V20.85H277.81V17.83L281.7 14.31V20.85H285.3V24.25H281.7V35.56C281.7 37.46 283.4 37.38 285.3 36.72V40.2C284.39 40.49 283.35 40.74 282.44 40.74C279.71 40.74 277.8 39.49 277.8 36.1V24.25H275.27H275.28ZM256.76 40.41V33.7H260.2V34.37C260.53 36.31 262.31 37.51 264.88 37.51C267.45 37.51 268.9 36.56 268.9 35.07C268.9 31.43 262.02 33.75 258.29 30.01C257.38 29.09 256.76 27.72 256.76 26.28C256.76 22.93 259.66 20.53 263.64 20.53C265.42 20.53 267.12 20.94 268.4 21.65V20.86H271.8V27.32H268.4V26.11C267.28 24.46 265.83 23.71 263.84 23.71C261.85 23.71 260.4 24.66 260.4 26.11C260.4 29.38 267.94 27.47 271.17 30.72C272.33 31.89 272.83 33.42 272.83 34.79C272.83 38.34 269.81 40.75 265.33 40.75C263.22 40.75 261.6 40.29 260.19 39.34V40.42H256.75L256.76 40.41ZM233.97 36.89V15.8H230.32V12.28H253.64V20.73H250.16V15.8H238.19V24.17H248.63V27.69H238.19V36.89H250.16V31.75H253.64V40.41H230.32V36.89H233.97ZM448.42 72.62V59.86H445.15V56.46H452.31V58.91C454.59 57.09 456.79 56.13 458.94 56.13C461.09 56.13 462.83 57.21 463.66 59.2C466.48 57.01 468.47 56.13 470.7 56.13C473.93 56.13 475.92 58.12 475.92 61.52V72.62H479.28V76.02H472.03V62.39C472.03 60.48 471.16 59.53 469.67 59.53C468.1 59.53 466.07 60.48 464.12 62.1V72.62H467.48V76.02H460.23V62.47C460.23 60.4 459.07 59.69 457.83 59.69C456.42 59.69 454.68 60.43 452.32 62.09V72.61H455.68V76.01H444.87V72.61H448.43L448.42 72.62ZM443.28 72.62V76.02H436.03V73.78C433.83 75.48 431.68 76.35 429.65 76.35C426.09 76.35 424.22 74.4 424.22 70.3V59.86H421.45V56.46H428.12V70.09C428.12 72.08 428.95 72.95 430.44 72.95C432.06 72.95 434.29 72 436.03 70.46V59.85H432.67V56.45H439.92V72.61H443.28V72.62ZM402.52 64.38H414.91C414.29 61.27 411.55 58.99 408.49 58.99C405.43 58.99 403.1 61.1 402.52 64.38ZM418.84 67.2H402.39C402.97 71.01 405.46 73.21 409.1 73.21C411.63 73.21 413.99 72.09 415.44 70.02L418.84 71.51C416.73 74.78 413.21 76.61 409.02 76.61C402.68 76.61 398.13 72.3 398.13 66.25C398.13 60.2 403.31 55.89 408.4 55.89C413.83 55.89 418.84 60.03 418.84 67.2ZM379.36 76.02V69.31H382.8V69.98C383.13 71.92 384.91 73.12 387.48 73.12C390.05 73.12 391.5 72.17 391.5 70.68C391.5 67.03 384.62 69.36 380.89 65.62C379.98 64.7 379.36 63.33 379.36 61.89C379.36 58.54 382.26 56.14 386.24 56.14C388.02 56.14 389.72 56.55 391 57.26V56.47H394.4V62.93H391V61.72C389.88 60.07 388.43 59.32 386.44 59.32C384.45 59.32 383 60.27 383 61.72C383 64.99 390.54 63.08 393.77 66.33C394.93 67.5 395.43 69.03 395.43 70.4C395.43 73.96 392.41 76.36 387.93 76.36C385.82 76.36 384.2 75.9 382.79 74.95V76.03H379.35L379.36 76.02ZM377.25 72.62V76.02H370V73.78C367.8 75.48 365.65 76.35 363.62 76.35C360.06 76.35 358.19 74.4 358.19 70.3V59.86H355.42V56.46H362.09V70.09C362.09 72.08 362.92 72.95 364.41 72.95C366.03 72.95 368.26 72 370 70.46V59.85H366.64V56.45H373.89V72.61H377.25V72.62ZM322.52 72.5V51.41H319.08V47.89H328.77L336.1 67.16L343.51 47.89H353.33V51.41H349.93V72.5H353.33V76.02H343.01V72.5H346.03V51.37L336.38 76.31H335.55L326.06 51.41L325.98 72.5H329V76.02H319.06V72.5H322.5H322.52ZM295.3 72.62V59.86H291.36V56.46H298.36V60.85C299.69 57.57 302.17 56.13 304.62 56.13H307.15V60.02H305.08C300.56 60.02 299.2 62.55 299.2 67.02V72.61H303.43V76.01H291.46V72.61H295.31L295.3 72.62ZM282.75 71.05V68.73C281.09 67.44 279.35 66.78 277.7 66.78C275.54 66.78 273.97 68.19 273.97 70.14C273.97 72.09 275.42 73.37 277.49 73.37C279.23 73.37 281.18 72.5 282.75 71.05ZM290 72.62V76.02H283.21V73.62C280.77 75.61 279.07 76.35 276.91 76.35C273.18 76.35 270.28 73.62 270.28 70.14C270.28 66.66 273.39 63.8 277.41 63.8C279.15 63.8 281.18 64.42 282.75 65.46V62.89C282.75 60.11 280.72 59.12 278.4 59.12C276.53 59.12 275.08 59.91 274.22 61.44L270.53 60.44C272.19 57.42 275 55.88 278.98 55.88C284.7 55.88 286.64 58.74 286.64 61.89V72.62H290ZM240.89 76.31L233.72 51.41H230.32V47.89H241.09V51.41H237.73L242.99 69.8L248.13 51.41H244.78V47.89H257.7V51.41H254.39L259.53 69.8L264.79 51.41H261.43V47.89H271.75V51.41H268.44L261.44 76.31H257.42L251.12 54.06L244.78 76.31H240.89ZM376.57 20.86V23.22C379.18 21.31 381.17 20.53 383.24 20.53C386.02 20.53 388.38 22.23 388.38 26.08V37.02H391.74V40.42H384.49V27.62C384.49 25.13 383.79 24.06 382.21 24.06C380.63 24.06 378.56 24.97 376.58 26.55V37.03H379.94V40.43H369.33V37.03H372.69V24.27H369.25V20.87H376.58L376.57 20.86ZM210.36 0H212.4V115.09H210.36V0Z" fill="#1D1D1B"/>
<path fill-rule="evenodd" clip-rule="evenodd" d="M75.94 39.37C75.94 39.18 75.99 39.02 76.08 38.87C76.41 38.3 76.87 37.83 77.46 37.45L75.85 37.33V37.78C75.3 38.01 75.15 37.71 75.15 37.28L73.43 37.25V35.22L75.13 35.27C75.2 34.76 75.31 34.66 75.51 34.66C75.76 34.68 75.9 34.86 75.94 35.19L77.67 35.22C77.8 34.78 77.81 34.64 78.16 34.64C78.39 34.68 78.51 34.86 78.51 35.19L79.58 35.21L79.6 33.77C79.25 33.56 78.36 32.97 78.3 31.7C78.38 29.39 80.47 29.1 80.84 29.11C81.19 29.09 83.3 29.11 83.4 31.59C83.4 33.11 82.42 33.62 82.24 33.7L82.04 35.22H83.23C83.28 34.68 83.7 34.53 83.85 34.78L83.94 35.22L85.82 35.19C85.91 34.74 86.03 34.64 86.24 34.64C86.55 34.67 86.69 34.86 86.67 35.21L88.32 35.26V37.26L86.62 37.38C86.57 37.98 86.46 38.1 86.24 38.08C85.91 38.06 85.89 37.6 85.9 37.32L84.25 37.44C85 37.9 85.53 38.46 85.82 39.11C85.44 39.11 85.3 39.12 84.94 39.4C84.75 39.68 84.57 39.97 84.48 40.32L84.38 40.89V41.38C84.4 41.98 84.51 42.43 84.61 42.85L84.86 43.49C84.97 43.69 85.09 43.87 85.22 44.06L85.68 44.66L85.43 45.59C85.23 45.96 85.16 46.11 85.04 46.28C84.48 46.95 83.98 47.16 83.33 47.34L82.69 47.48L82.05 47.65V49.21C82.9 49.07 85.31 48.64 86.57 47.25L87.01 46.77L86.24 46.63C86.24 46.63 87.54 45.26 87.87 44.84C88.74 43.74 89.21 42.45 89.51 41.15C90.83 42.75 90.25 47.35 88.83 48.83L88.67 48.22L88.45 47.5L88.03 48.13C87.04 49.62 85.68 50.45 84.34 51.1C83.78 51.37 83.12 51.64 82.48 51.97C81.95 52.23 81.42 52.54 80.98 52.91C80.6 52.55 80.22 52.32 79.83 52.12C79.37 51.9 78.88 51.73 78.31 51.49C77.23 51.04 75.84 50.32 73.88 48.45L73.45 48.04L73.29 48.61C71.5 47.43 70.76 43.15 72.43 41.37C72.56 43.74 74.16 45.4 75.84 46.67L74.81 46.78L75.39 47.32C76.35 48.22 77.68 49.06 79.08 49.23L79.73 49.29L79.7 47.63C79.11 47.49 78.79 47.44 78.47 47.35L77.93 47.18L77.35 46.89C77.18 46.77 77.02 46.63 76.88 46.47C76.63 46.14 76.55 46.03 76.48 45.88L76.16 45.16L76.13 44.44L76.62 43.94L76.91 43.48L77.19 42.7C77.31 42.13 77.36 41.87 77.37 41.63L77.39 40.9C77.39 40.6 77.32 40.3 77.21 40.03C77.13 39.78 77.06 39.65 76.86 39.38C76.74 39.33 76.4 39.06 75.92 39.38M82.03 31.98L82.14 31.51C82.17 31.01 81.8 30.68 81.53 30.54C81.27 30.4 80.94 30.4 80.89 30.4C80.84 30.4 80.45 30.37 80.17 30.51C79.88 30.66 79.56 31.06 79.55 31.59L79.63 32.09C80.36 31.74 81.15 31.7 82.01 31.98H82.03ZM110.8 49.85L112.3 48.94L110.79 48.09V49.86L110.8 49.85ZM119.33 31.58L118.95 32.56L118.87 33.29L118.59 33.87C118.55 34.77 118.39 35.08 118.18 35.33C118.34 35.83 118.2 36.04 118.05 36.23L118 36.74C117.9 37 117.77 37.17 117.64 37.3C117.23 38.2 117.01 38.52 116.69 38.74C116.58 39.3 116.29 39.54 115.93 39.72C115.94 40.37 115.79 40.45 115.64 40.51C115.64 40.7 115.74 40.88 115.8 41.07C115.55 41.62 115.65 41.75 115.72 41.89C115.64 42.22 115.47 42.32 115.31 42.37C115.49 42.8 115.56 42.94 115.53 43.09C115.24 43.36 115.14 43.38 115.07 43.38C115.03 43.66 115.14 44.01 115.07 44.4C114.78 44.55 114.65 44.54 114.54 44.51C114.65 45.08 114.67 45.36 114.54 45.6C114.23 45.68 114.07 45.66 113.94 45.61C113.97 46.21 113.95 46.48 113.82 46.68L113.23 46.57C113.2 46.93 113.18 47.05 113.14 47.14L112.6 47.33L114.64 48.89L112.89 49.86C112.95 50.1 112.87 50.42 112.57 50.48C112.5 50.64 112.36 50.8 112.12 50.85L111.65 50.95C111.35 50.97 111.24 50.9 111.16 50.82L110.56 51.16C111.25 51.49 111.92 51.88 112.33 52.56C112.05 52.87 111.8 52.87 111.47 52.86C110.97 52.81 110.53 52.68 110.13 52.52C109.74 52.36 109.38 52.16 109.01 51.99L107.03 51.02C106.93 51.35 106.86 51.5 106.73 51.6C106.28 51.58 106.19 51.72 106.04 51.81C105.53 51.7 105.4 51.79 105.22 51.83C104.71 51.66 104.58 51.72 104.42 51.75C104.15 51.61 104.11 51.43 104.09 51.32C103.66 51.34 103.45 51.37 103.25 51.32C103 51 102.83 51.01 102.68 50.93C102.49 50.62 102.35 50.63 102.19 50.6L102.89 49.43C103.11 49.04 103.07 49.02 103.03 48.99C102.82 48.33 103.04 48.25 103.2 48.24C103.72 48.03 103.81 47.96 103.91 47.91L104.53 47.87C104.64 47.53 104.71 47.42 104.79 47.34L104.5 46.41C104.33 46.59 104.17 46.71 103.93 46.73C103.73 46.34 103.7 46.09 103.68 45.84C103.5 45.97 103.32 46.05 103.08 46.05L102.92 45.19C102.76 45.3 102.6 45.39 102.39 45.4L102.3 44.64C101.8 43.97 101.82 43.59 101.86 43.26C101.46 42.82 101.51 42.57 101.57 42.35C101.33 41.62 101.4 41.36 101.47 41.14L101.19 40.38C101.32 39.83 101.38 39.71 101.44 39.61L100.94 39.5L101.11 38.95C100.74 38.78 100.62 38.71 100.49 38.67L100.55 38.2C100.17 38.08 99.97 38 99.87 37.83C99.68 37.32 99.49 37.26 99.37 37.11C99.26 36.58 99.01 36.4 98.85 36.13L98.79 35.42C98.63 35.26 98.46 35.08 98.36 34.88C98.42 34.29 98.2 33.93 98.1 33.48C98.16 32.98 98.03 32.64 97.93 32.28C97.89 31.62 97.79 31.38 97.75 31.12L97.81 30.64C97.69 30.38 97.58 30.08 97.58 29.7L97.65 29.18C98.17 29.59 98.46 29.89 98.8 30.2L99.3 30.67L99.89 31.1C100.22 31.57 100.61 31.96 101.04 32.31C101.48 32.67 101.95 33 102.38 33.35C103.01 33.71 103.19 33.93 103.48 34.16C103.77 34.39 104.09 34.61 104.39 34.88L105.22 35.63C105.51 35.89 105.81 36.18 105.98 36.57C106.18 36.99 106.29 37.37 106.27 37.89C106.26 38.14 106.17 38.52 106.15 38.77C106.13 39.01 106.13 39.25 106.15 39.49C106.23 40.08 106.59 40.5 107.03 40.76C107.19 40.86 107.39 40.95 107.53 40.94L107.99 40.76C108.62 40.27 108.86 40 108.91 39.68L108.56 39.09C108.26 38.98 108.04 38.95 108.07 38.65C108.8 38.83 108.55 37.7 107.83 38.52C107.28 37.74 108.58 37.53 108.78 37.58L109.4 37.48C110.19 37.52 110.62 38.21 110.86 38.66C111.08 39.04 111.2 39.48 111.27 39.94C111.36 39.76 111.41 39.58 111.47 39.42C111.6 39.07 111.71 38.71 111.73 38.3C111.75 38.05 111.74 37.86 111.78 37.66C111.82 37.45 111.89 37.07 112 36.88C112.18 36.56 112.4 36.38 112.69 36.14C112.96 35.9 113.26 35.75 113.55 35.55L114.4 34.96L115.54 33.95C116.18 33.3 116.11 33.25 116.4 32.94L116.92 32.42C117.22 32.13 118.23 31.01 118.31 30.86L118.79 30.63L119.39 29.8L119.74 29.33L119.72 29.91C119.71 30.25 119.72 30.54 119.7 30.81C119.67 31.03 119.56 31.24 119.45 31.41L119.34 31.56L119.33 31.58ZM108.55 48.36L108.07 47.96C107.81 47.96 107.61 48.33 107.47 48.67C107.32 49.05 107.18 49.44 107.16 49.82C107.95 50.11 108.69 50.4 109.45 50.71L109.48 48.58C109.19 48.87 109.03 48.97 108.86 48.93L108.56 48.36H108.55ZM66.66 27.84C66.75 42.4 68.91 54.34 73.24 63.57L93.49 49.01V23.61C84.66 23.72 75.81 25.12 66.66 27.84ZM74.19 65.5C78.8 74.31 85.55 80.44 94.55 83.84C103.55 80.45 110.31 74.31 114.91 65.5L94.55 50.88L74.19 65.5ZM115.87 63.57C120.19 54.34 122.35 42.4 122.44 27.84C113.29 25.13 104.45 23.72 95.61 23.61V49.01L115.86 63.57H115.87ZM71.96 24.22C77.06 23.01 82.03 22.19 86.94 21.78L87.48 19.53C88.6 14.69 82.95 14.07 82.95 14.07C79.38 13.48 79.85 16.55 79.85 16.55C73.45 8.26001 84.16 8.01001 88.28 7.73001C89.01 4.60001 95.08 5.76001 98.26 6.94001C101.62 8.18001 102.75 18.15 103.06 21.86C107.64 22.29 112.26 23.07 117 24.19C119.04 22.81 121.64 21.88 125.08 21.33C134.7 19.8 140.44 21.37 156.03 19.37C172.95 17.2 188.91 9.42001 188.91 9.42001C188.82 12.19 188.46 15.98 183.86 17.81C172.4 22.39 160.09 25.15 147.38 26.84C145.42 27.1 145.49 28.19 145.55 29.11C160.26 27.3 174.57 24.1 187.74 18.38C186.96 21.55 185.53 24.13 182.02 25.6C170.7 30.34 159.15 32.64 145.52 34.2C143.85 34.39 143.91 35.18 143.94 36.41C159.02 34.77 171.67 32.34 184.19 26.88C181.5 31.06 177.67 34.14 172.69 36.12C163.68 38.98 154.27 40.31 142.89 41.44C141.25 41.6 141.24 42.56 141.21 43.63C150.94 42.7 159.31 41.66 167.2 39.74C166.14 42.13 163.94 45.29 159.65 45.99C152.84 47.11 146.16 47.6 140.33 47.28C138.62 47.19 138.56 48.11 138.31 49.16C145.26 49.76 153.48 49.16 161.79 47.67C159.47 50 156.46 53.67 149.15 53.61C144.53 53.57 141.24 53.39 137.45 52.44C136.04 52.09 135.13 52.84 134.66 53.77C138.57 54.94 142.53 55.45 147.01 55.59C146.16 56.97 144.31 59.29 141.24 58.49C138.57 57.79 136.48 57.19 134.45 56.24C132.85 55.49 131.93 56.29 131.46 56.96C134.29 58.61 138.51 59.95 142.69 60.91C141.86 61.74 139.62 62.97 137.24 62.1C134.82 61.21 133.08 60.49 131.31 59.55C130.01 58.85 128.95 59.54 128.41 60.24C130.75 61.66 134.53 63.36 138.35 64.62C137.64 65.13 134.23 65.99 132.33 65.09C130.42 64.19 129.29 63.64 127.88 62.81C126.58 62.04 125.3 62.66 124.77 63.26C126.62 64.45 129.72 66.17 133 67.61C130.71 68.56 127.83 68.3 124.88 66.49C124.33 66.15 124.18 66.12 123.6 65.74C122.32 64.88 121.19 65.74 120.8 66.22C122.56 67.43 124 68.38 125.64 69.26C122.72 69.37 119.59 68.83 116.31 67.38C115.15 69.46 113.85 71.45 112.38 73.32L114.58 74.76L113.1 76.19L115.32 77.78C120.12 75.65 124.04 78.52 122.85 83.62C121.31 80.15 119.48 79.12 117.01 79.85C119.39 81.25 120.42 83.32 119.38 87.03C118.04 82.88 115.24 81.28 113.98 81.78C111.61 82.72 112.87 84.35 114.13 86.14C109.63 85.55 109.48 81.34 111.9 79.11L111.16 78.07L109.63 79.56L108.44 77.63C104.69 81.17 100.11 84.08 94.53 86.12C88.89 84.06 84.28 81.11 80.51 77.53L79.26 79.57L77.72 78.08L76.98 79.12C79.41 81.35 79.26 85.56 74.75 86.15C76.01 84.36 77.27 82.74 74.9 81.79C73.64 81.29 70.84 82.88 69.5 87.04C68.46 83.33 69.5 81.26 71.88 79.86C69.4 79.12 67.57 80.16 66.04 83.63C64.85 78.53 68.77 75.66 73.57 77.79L75.79 76.2L74.31 74.77L76.63 73.26C75.17 71.39 73.87 69.41 72.72 67.33C69.38 68.83 66.2 69.39 63.24 69.28C64.88 68.4 66.33 67.45 68.08 66.24C67.7 65.75 66.57 64.9 65.29 65.76C64.71 66.15 64.56 66.18 64.01 66.51C61.06 68.32 58.18 68.58 55.89 67.63C59.17 66.19 62.27 64.47 64.12 63.28C63.6 62.68 62.32 62.06 61.01 62.83C59.61 63.66 58.47 64.21 56.57 65.11C54.67 66.01 51.26 65.15 50.55 64.64C54.36 63.37 58.15 61.68 60.49 60.26C59.94 59.56 58.89 58.87 57.59 59.57C55.82 60.51 54.08 61.23 51.66 62.12C49.27 63 47.03 61.77 46.21 60.93C50.39 59.97 54.61 58.62 57.44 56.98C56.97 56.31 56.05 55.51 54.45 56.26C52.43 57.21 50.33 57.81 47.66 58.51C44.59 59.31 42.74 56.98 41.89 55.61C46.37 55.47 50.33 54.96 54.24 53.79C53.77 52.86 52.86 52.11 51.45 52.46C47.66 53.42 44.36 53.6 39.75 53.63C32.43 53.69 29.43 50.02 27.1 47.69C35.4 49.18 43.62 49.78 50.58 49.18C50.33 48.12 50.27 47.2 48.56 47.3C42.72 47.61 36.05 47.13 29.23 46.01C24.95 45.31 22.74 42.15 21.68 39.76C29.57 41.68 37.94 42.72 47.67 43.65C47.63 42.57 47.63 41.62 45.99 41.46C34.61 40.33 25.2 38.99 16.19 36.14C11.22 34.15 7.38 31.07 4.69 26.9C17.21 32.36 29.85 34.79 44.94 36.43C44.97 35.2 45.03 34.41 43.36 34.22C29.72 32.66 18.18 30.36 6.85 25.62C3.34 24.15 1.91 21.57 1.13 18.4C14.29 24.12 28.61 27.32 43.32 29.13C43.38 28.22 43.46 27.13 41.5 26.86C28.79 25.18 16.48 22.41 5.02 17.83C0.45 15.98 0.09 12.19 0 9.42001C0 9.42001 15.96 17.2 32.88 19.37C48.46 21.37 54.21 19.8 63.83 21.33C67.3 21.88 69.91 22.83 71.96 24.22ZM121.1 55.69C120.83 56.62 120.54 57.55 120.23 58.47C122.46 57.22 123.86 55.44 124.5 53.17C132.58 52.38 135.6 46.07 134.35 39.41C138.22 36.94 140.05 33.12 139.85 28.12C138.46 28.47 137.9 29.35 137.67 31.14C137.13 34.35 135.26 37.03 130.95 38.91C132.73 46.58 129.51 50.67 123.25 51.85C122.91 53.55 122.14 54.78 121.11 55.68L121.1 55.69ZM68.91 58.59C68.61 57.7 68.32 56.8 68.06 55.89C66.9 54.96 66.05 53.68 65.68 51.86C59.43 50.68 56.2 46.59 57.98 38.92C53.67 37.03 51.8 34.36 51.26 31.15C51.03 29.36 50.47 28.48 49.08 28.13C48.89 33.13 50.71 36.95 54.58 39.42C53.33 46.08 56.34 52.39 64.42 53.18C65.08 55.52 66.55 57.35 68.91 58.6V58.59ZM93.46 66.47L93.51 63.2C93.52 62.18 93.77 61.5 94.44 61.06C95.09 61.51 95.38 62.18 95.4 63.19C95.42 64.07 95.39 65.21 95.39 66.47H94.55V62.12L94.36 66.47H93.47H93.46ZM93.59 74.71C94.13 74.67 94.7 74.67 95.27 74.71L94.96 77.41C94.6 77.35 94.26 77.36 93.9 77.41L93.59 74.72V74.71ZM90.13 73.87L90.79 73.29C93.26 74.22 95.55 74.17 97.99 73.29L98.69 73.87C95.99 74.67 93.1 74.7 90.13 73.87ZM93.42 77.89C93.77 77.47 95.14 77.46 95.46 77.93C95.55 78.21 95.51 78.65 95.36 78.87C94.71 79.24 94.16 79.25 93.47 78.87C93.33 78.61 93.32 78.19 93.41 77.89H93.42ZM94.53 72.47H95.39V73.67C95.11 73.7 94.82 73.73 94.52 73.73V72.47H94.53ZM93.48 72.47H94.36V73.73C94.07 73.73 93.78 73.71 93.48 73.67V72.47ZM86.31 65.31H86.98V66.73H90.01L90.03 65.33H92.86V66.76H95.91V65.33H98.83V66.76H101.88V65.33H102.56C102.53 67.72 102.34 70.1 101.88 72.23L87.06 72.26C86.52 70.1 86.37 67.74 86.33 65.32L86.31 65.31ZM103.69 59.92C103.7 74 102.95 76.65 94.66 80.75C85.65 76.49 85.23 73.79 85.22 60.33L103.68 59.92H103.69Z" fill="#1D1D1B"/>
<path fill-rule="evenodd" clip-rule="evenodd" d="M76.99 104.13H82.69V102.26H81.16V92.48H76.89V94.35H78.6V102.26H76.99V104.13ZM85.57 101.16C85.74 103.12 86.91 104.28 88.86 104.28C91.8 104.28 93.2 102.1 93.2 98.17C93.2 94.24 91.84 92.28 89 92.28C86.77 92.28 85.43 93.64 85.43 96.4C85.43 98.66 86.82 99.9 88.62 99.9C89.46 99.9 90.08 99.68 90.68 99.15C90.66 101.36 89.91 102.46 88.95 102.46C88.08 102.46 87.8 101.76 87.58 100.99L85.57 101.16ZM90.68 97.53C90.22 97.86 89.72 98.03 89.22 98.03C88.35 98.03 87.8 97.31 87.8 96.16C87.8 94.91 88.26 94.19 89.05 94.19C90.27 94.19 90.66 95.49 90.68 97.53ZM95.93 104.13H101.63V102.26H100.1V92.48H95.83V94.35H97.54V102.26H95.93V104.13ZM104.51 101.16C104.68 103.12 105.85 104.28 107.8 104.28C110.73 104.28 112.14 102.1 112.14 98.17C112.14 94.24 110.79 92.28 107.94 92.28C105.71 92.28 104.37 93.64 104.37 96.4C104.37 98.66 105.76 99.9 107.56 99.9C108.4 99.9 109.02 99.68 109.62 99.15C109.6 101.36 108.85 102.46 107.89 102.46C107.02 102.46 106.74 101.76 106.52 100.99L104.51 101.16ZM109.62 97.53C109.16 97.86 108.66 98.03 108.16 98.03C107.28 98.03 106.73 97.31 106.73 96.16C106.73 94.91 107.2 94.19 107.98 94.19C109.2 94.19 109.59 95.49 109.61 97.53H109.62Z" fill="#1D1D1B"/>
</g>
<defs>
<clipPath id="clip0_1_2">
<rect width="482" height="115.09" fill="white"/>
</clipPath>
</defs>
</svg>
