<svg width="482" height="115" viewBox="0 0 482 115" fill="none" xmlns="http://www.w3.org/2000/svg">
<g clip-path="url(#clip0_1_12)">
<path fill-rule="evenodd" clip-rule="evenodd" d="M74.9145 37.7554C74.9145 37.5703 74.9659 37.4059 75.0584 37.262C75.3873 36.7069 75.8396 36.234 76.4153 35.8537L74.8323 35.7406V36.1826C74.2978 36.4088 74.1436 36.1107 74.1436 35.6892L72.4475 35.6584V33.654L74.123 33.6951C74.195 33.1914 74.308 33.0989 74.5033 33.0989C74.75 33.1195 74.8837 33.2942 74.9248 33.6231L76.6311 33.654C76.7545 33.2222 76.775 33.0783 77.1142 33.0783C77.3404 33.1195 77.4637 33.2942 77.4637 33.6231L78.5122 33.6437L78.5328 32.2252C78.1833 32.0196 77.3096 31.4337 77.2479 30.1796C77.3301 27.8976 79.3859 27.6098 79.756 27.6304C80.1055 27.6098 82.1819 27.6304 82.2847 30.0768C82.2847 31.5776 81.3184 32.071 81.1437 32.1532L80.9484 33.654H82.1305C82.1819 33.1195 82.593 32.9755 82.7369 33.2222L82.8192 33.654L84.6797 33.6231C84.7619 33.1811 84.8853 33.0783 85.0909 33.0783C85.3992 33.1092 85.5432 33.2942 85.5123 33.6437L87.1364 33.6848V35.6584L85.4609 35.7715C85.4095 36.3677 85.3067 36.4807 85.0806 36.4602C84.7517 36.4396 84.7414 35.9873 84.7414 35.7098L83.1173 35.8332C83.8574 36.2854 84.3816 36.8405 84.6591 37.4881C84.2891 37.4881 84.1555 37.4984 83.7854 37.7759C83.5901 38.0535 83.4256 38.331 83.3331 38.6908L83.2303 39.2561V39.7392C83.2509 40.3354 83.3537 40.7672 83.4565 41.1886L83.7032 41.8156C83.806 42.0109 83.9293 42.196 84.063 42.381L84.5152 42.9772L84.2685 43.9023C84.0732 44.2723 84.0013 44.4163 83.8882 44.5807C83.3331 45.2386 82.8397 45.4442 82.2024 45.6292L81.5754 45.7731L80.9484 45.9478V47.4897C81.7913 47.3561 84.1657 46.9244 85.4095 45.5572L85.8413 45.0844L85.0806 44.9508C85.0806 44.9508 86.3655 43.5939 86.6944 43.1828C87.5476 42.1034 88.0102 40.8288 88.3083 39.5439C89.6137 41.1166 89.0381 45.66 87.6401 47.1197L87.4859 46.5132L87.2701 45.8039L86.8589 46.4207C85.8824 47.8906 84.5358 48.7027 83.2201 49.3502C82.665 49.6175 82.0174 49.8848 81.3904 50.2034C80.8661 50.4604 80.3419 50.7688 79.9102 51.1388C79.5298 50.7893 79.1598 50.5529 78.7692 50.3679C78.3169 50.152 77.8338 49.9876 77.2787 49.7511C76.2097 49.3091 74.8426 48.5999 72.9101 46.7496L72.4886 46.3487L72.3242 46.9141C70.5664 45.7423 69.8263 41.5278 71.471 39.7701C71.6046 42.1137 73.1773 43.7481 74.8323 45.0022L73.8249 45.105L74.3903 45.6395C75.336 46.5235 76.6517 47.3458 78.0291 47.5206L78.6664 47.5822L78.6356 45.9478C78.0599 45.8142 77.7413 45.7628 77.4226 45.6703L76.8984 45.4956L76.3228 45.218C76.1583 45.105 75.9938 44.961 75.8602 44.8069C75.6135 44.4882 75.5415 44.3751 75.4696 44.2312L75.1612 43.522L75.1304 42.8127L75.6238 42.3193L75.9013 41.867L76.1788 41.1064C76.2919 40.541 76.3433 40.2943 76.3536 40.0476L76.3741 39.3281C76.3741 39.03 76.3022 38.7319 76.1994 38.4646C76.1172 38.2179 76.0555 38.0946 75.8602 37.817C75.7471 37.7656 75.4079 37.4984 74.9351 37.817M80.9278 30.4674L81.0409 29.9946C81.0717 29.5012 80.712 29.1723 80.4447 29.0386C80.1877 28.905 79.8691 28.905 79.8177 28.8947C79.7663 28.8947 79.3859 28.8639 79.1084 29.0078C78.8206 29.162 78.5122 29.5526 78.5019 30.0768L78.5842 30.5702C79.3037 30.2207 80.0849 30.1899 80.9278 30.4572V30.4674ZM109.309 48.0962L110.789 47.1916L109.298 46.3487V48.0962H109.309ZM117.737 30.0768L117.357 31.0431L117.275 31.7626L116.997 32.3382C116.956 33.2222 116.802 33.5409 116.596 33.7773C116.751 34.2707 116.617 34.4763 116.473 34.6613L116.422 35.165C116.329 35.422 116.196 35.5865 116.062 35.7201C115.661 36.6041 115.445 36.9227 115.116 37.1489C115.014 37.704 114.715 37.9404 114.366 38.1151C114.366 38.7627 114.222 38.8347 114.078 38.8963C114.078 39.0814 114.181 39.2561 114.232 39.4514C113.986 39.9962 114.088 40.1196 114.15 40.2635C114.068 40.5924 113.903 40.6849 113.749 40.7363C113.924 41.1578 113.996 41.3017 113.965 41.4456C113.677 41.7128 113.585 41.7231 113.513 41.7334C113.472 42.0006 113.585 42.3501 113.513 42.7408C113.225 42.8949 113.102 42.8847 112.989 42.8538C113.102 43.4192 113.112 43.6967 112.989 43.9331C112.68 44.0154 112.526 43.9845 112.403 43.9434C112.433 44.5293 112.413 44.8069 112.29 44.9919L111.714 44.8891C111.683 45.2386 111.662 45.3619 111.621 45.4544L111.097 45.6395L113.112 47.1813L111.385 48.1373C111.447 48.3737 111.364 48.6924 111.077 48.7541C111.005 48.9185 110.871 49.0727 110.635 49.1138L110.172 49.2063C109.884 49.2269 109.771 49.1549 109.689 49.083L109.093 49.4119C109.771 49.7306 110.439 50.1212 110.84 50.7893C110.573 51.0977 110.316 51.0977 109.997 51.0874C109.504 51.0463 109.072 50.9127 108.682 50.7482C108.301 50.594 107.941 50.3987 107.571 50.224L105.618 49.268C105.516 49.5969 105.454 49.7409 105.32 49.8437C104.878 49.8231 104.786 49.9567 104.642 50.0492C104.138 49.9464 104.005 50.0287 103.83 50.0698C103.326 49.895 103.203 49.967 103.038 49.9876C102.781 49.8437 102.74 49.6792 102.72 49.5661C102.298 49.5867 102.093 49.6175 101.897 49.5661C101.651 49.2577 101.486 49.268 101.332 49.1858C101.147 48.8774 101.003 48.8877 100.849 48.8671L101.538 47.7159C101.753 47.3355 101.712 47.315 101.671 47.2841C101.466 46.6366 101.681 46.5543 101.836 46.544C102.35 46.3385 102.432 46.2665 102.535 46.2151L103.151 46.174C103.254 45.8348 103.336 45.732 103.408 45.6498L103.121 44.7246C102.946 44.8994 102.792 45.0124 102.555 45.0433C102.35 44.663 102.329 44.4163 102.308 44.1696C102.123 44.2929 101.959 44.3751 101.723 44.3751L101.568 43.522C101.414 43.635 101.25 43.7173 101.044 43.7276L100.952 42.9772C100.458 42.309 100.479 41.939 100.52 41.6203C100.119 41.1886 100.17 40.9419 100.232 40.7158C99.9957 39.9962 100.068 39.7392 100.14 39.5234L99.862 38.773C99.9854 38.2282 100.047 38.1151 100.109 38.0123L99.6153 37.8993L99.7798 37.3545C99.42 37.19 99.2967 37.1181 99.163 37.0872L99.2144 36.6247C98.8444 36.5013 98.6491 36.4293 98.536 36.2546C98.3407 35.7509 98.166 35.6892 98.0426 35.5453C97.9398 35.0211 97.6931 34.8361 97.5287 34.5791L97.467 33.8801C97.3025 33.7259 97.1483 33.5512 97.0353 33.3559C97.0969 32.7802 96.8811 32.4205 96.7783 31.9682C96.84 31.4748 96.7063 31.1459 96.6138 30.7861C96.583 30.1385 96.4802 29.9021 96.4288 29.6451L96.4905 29.1723C96.3671 28.9153 96.2643 28.6172 96.2643 28.2471L96.3363 27.7332C96.84 28.1443 97.138 28.4322 97.467 28.7405L97.9604 29.2031L98.536 29.6245C98.8547 30.0974 99.2453 30.4674 99.677 30.8169C100.109 31.1767 100.571 31.4953 101.003 31.8448C101.63 32.1943 101.805 32.4205 102.093 32.6466C102.38 32.883 102.699 33.0886 102.987 33.3559L103.809 34.096C104.097 34.353 104.385 34.6408 104.56 35.0211C104.755 35.4323 104.868 35.8126 104.847 36.3266C104.837 36.5733 104.745 36.9536 104.734 37.2003C104.714 37.4367 104.714 37.6731 104.734 37.9095C104.806 38.4955 105.176 38.8963 105.608 39.1636C105.773 39.2561 105.968 39.3486 106.101 39.3486L106.554 39.1739C107.171 38.6908 107.417 38.4235 107.458 38.1049L107.119 37.5189C106.821 37.4161 106.615 37.3853 106.636 37.0769C107.356 37.2517 107.109 36.1415 106.4 36.9536C105.855 36.1826 107.14 35.9771 107.335 36.0182L107.952 35.9154C108.733 35.9565 109.154 36.6349 109.391 37.0769C109.607 37.4573 109.73 37.8787 109.802 38.3413C109.884 38.1562 109.936 37.9918 109.997 37.8273C110.131 37.4778 110.234 37.118 110.254 36.7274C110.275 36.4807 110.265 36.2957 110.295 36.0901C110.326 35.8846 110.398 35.5042 110.511 35.3192C110.696 35.0005 110.912 34.8258 111.19 34.5894C111.457 34.353 111.755 34.209 112.043 34.0035L112.886 33.4278L114.006 32.4308C114.633 31.7934 114.571 31.742 114.859 31.4337L115.373 30.9197C115.671 30.6319 116.668 29.5218 116.74 29.3778L117.213 29.1517L117.809 28.3396L118.159 27.8771L118.138 28.4527C118.128 28.7919 118.138 29.0695 118.118 29.347C118.087 29.5629 117.984 29.7685 117.871 29.9329L117.758 30.0768H117.737ZM107.099 46.6263L106.626 46.2254C106.369 46.2254 106.173 46.5954 106.03 46.9244C105.875 47.2944 105.742 47.685 105.721 48.0654C106.492 48.3532 107.232 48.641 107.983 48.9494L108.013 46.8421C107.736 47.1197 107.571 47.2327 107.397 47.1916L107.099 46.6263ZM65.7661 26.3763C65.8586 40.7466 67.9864 52.5162 72.2522 61.6236L92.2349 47.2533V22.203C83.5182 22.3058 74.7912 23.6935 65.7661 26.3763ZM73.1979 63.5355C77.7413 72.2214 84.4124 78.2758 93.2834 81.6268C102.165 78.2758 108.825 72.2317 113.369 63.5355L93.2834 49.1138L73.1979 63.5355ZM114.315 61.6338C118.58 52.5265 120.708 40.7466 120.801 26.3866C111.776 23.714 103.049 22.3263 94.3318 22.2133V47.2636L114.315 61.6338ZM70.9879 22.8095C76.0247 21.6068 80.9175 20.805 85.7693 20.4041L86.3038 18.1838C87.4037 13.4143 81.8324 12.7976 81.8324 12.7976C78.3169 12.2219 78.7795 15.244 78.7795 15.244C72.4681 7.06179 83.035 6.81509 87.0953 6.54783C87.8149 3.45381 93.7973 4.60507 96.9427 5.76662C100.253 6.98984 101.373 16.827 101.681 20.4864C106.194 20.9078 110.758 21.6788 115.435 22.7786C117.45 21.4218 120.009 20.4966 123.412 19.9519C132.91 18.4408 138.573 19.993 153.941 18.0194C170.634 15.8813 186.382 8.20278 186.382 8.20278C186.289 10.937 185.929 14.6684 181.407 16.4775C170.1 20.9901 157.96 23.7243 145.419 25.3895C143.476 25.6465 143.559 26.7258 143.62 27.6201C158.135 25.8315 172.258 22.6758 185.241 17.0326C184.47 20.1574 183.062 22.7067 179.597 24.156C168.424 28.8228 157.035 31.0945 143.579 32.6363C141.935 32.8214 141.996 33.6026 142.017 34.8155C156.901 33.2017 169.38 30.7964 181.725 25.4101C179.073 29.532 175.29 32.5747 170.387 34.5277C161.496 37.3442 152.214 38.6599 140.979 39.7804C139.355 39.9448 139.355 40.8802 139.324 41.939C148.924 41.0139 157.179 39.9962 164.96 38.1049C163.911 40.4691 161.743 43.5734 157.518 44.2723C150.795 45.3722 144.217 45.8553 138.45 45.547C136.764 45.4544 136.703 46.359 136.456 47.4075C143.312 48.0037 151.422 47.4075 159.615 45.9376C157.323 48.2401 154.362 51.8584 147.136 51.7967C142.582 51.7556 139.324 51.5808 135.592 50.6351C134.205 50.2857 133.31 51.036 132.838 51.9406C136.703 53.1021 140.609 53.5955 145.029 53.7394C144.186 55.0963 142.366 57.3886 139.334 56.6073C136.703 55.9186 134.636 55.3224 132.632 54.3973C131.049 53.6572 130.144 54.4487 129.682 55.1066C132.468 56.7307 136.641 58.0567 140.763 59.0127C139.951 59.835 137.741 61.0479 135.387 60.1845C132.992 59.3108 131.285 58.6015 129.538 57.6661C128.253 56.9774 127.215 57.6558 126.67 58.3548C128.973 59.763 132.714 61.4283 136.476 62.6823C135.777 63.1757 132.416 64.0289 130.535 63.1449C128.654 62.2609 127.534 61.7161 126.146 60.8937C124.861 60.1434 123.597 60.7498 123.083 61.346C124.902 62.5179 127.965 64.2139 131.203 65.6324C128.952 66.5678 126.105 66.3109 123.196 64.5223C122.651 64.1934 122.497 64.1625 121.931 63.7822C120.667 62.9393 119.557 63.7822 119.177 64.255C120.914 65.4577 122.332 66.3828 123.956 67.2565C121.078 67.3593 117.984 66.8351 114.746 65.396C113.605 67.4518 112.32 69.4152 110.861 71.2551L113.03 72.6737L111.57 74.0819L113.759 75.6546C118.498 73.5577 122.363 76.3844 121.191 81.4212C119.67 77.9983 117.871 76.9806 115.425 77.7104C117.768 79.0878 118.796 81.1334 117.768 84.7928C116.453 80.6914 113.677 79.1187 112.444 79.6121C110.1 80.5475 111.354 82.151 112.588 83.9088C108.147 83.3229 107.993 79.1701 110.388 76.9703L109.658 75.9424L108.147 77.4123L106.975 75.5107C103.275 79.0056 98.7622 81.8735 93.2525 83.8882C87.6915 81.8529 83.1378 78.9439 79.4168 75.4079L78.1833 77.4226L76.6722 75.9527L75.9424 76.9806C78.3375 79.1804 78.1936 83.3331 73.7427 83.9191C74.9865 82.1613 76.2302 80.5475 73.8866 79.6224C72.6428 79.129 69.8777 80.7017 68.562 84.8031C67.5341 81.1437 68.562 79.0981 70.9056 77.7207C68.4592 76.9909 66.6603 78.0188 65.139 81.4315C63.9672 76.3947 67.8322 73.5679 72.5606 75.6649L74.75 74.0922L73.2904 72.6839L75.5827 71.1935C74.1333 69.3535 72.8587 67.3902 71.728 65.3446C68.4386 66.8248 65.2932 67.3696 62.3739 67.2668C63.998 66.4034 65.4166 65.468 67.1537 64.2653C66.7734 63.7822 65.6633 62.9393 64.3989 63.7925C63.8233 64.1728 63.6794 64.2036 63.1346 64.5326C60.2256 66.3211 57.3783 66.5678 55.1271 65.6427C58.3651 64.2242 61.4282 62.5281 63.2477 61.3563C62.7337 60.7601 61.4694 60.1536 60.1845 60.904C58.7968 61.7161 57.6764 62.2609 55.7953 63.1552C53.9142 64.0392 50.5529 63.1963 49.8539 62.6926C53.6161 61.4385 57.3577 59.7733 59.6602 58.3651C59.1257 57.6661 58.0875 56.9979 56.7923 57.6764C55.0449 58.6118 53.3386 59.321 50.9435 60.1948C48.5896 61.0582 46.3796 59.8453 45.5675 59.0229C49.6895 58.0773 53.8525 56.7512 56.6382 55.1169C56.1756 54.459 55.271 53.6675 53.688 54.4076C51.6939 55.343 49.6278 55.9392 46.986 56.6176C43.9537 57.3988 42.1343 55.1066 41.2914 53.7497C45.7114 53.6161 49.6175 53.1124 53.4825 51.9509C53.0199 51.036 52.1256 50.2857 50.7276 50.6454C46.9963 51.5911 43.7378 51.7659 39.1842 51.807C31.9682 51.8584 28.9975 48.2504 26.7053 45.9478C34.8977 47.4178 43.008 48.014 49.8642 47.4178C49.6175 46.3796 49.5661 45.4647 47.87 45.5572C42.1137 45.8656 35.5248 45.3825 28.8022 44.2826C24.5775 43.5836 22.4086 40.4793 21.3601 38.1151C29.1414 40.0168 37.3956 41.0344 46.9963 41.9493C46.9655 40.8905 46.9552 39.9448 45.3414 39.7906C34.1165 38.6805 24.8242 37.3545 15.943 34.538C11.0398 32.5747 7.25709 29.5423 4.60506 25.4204C16.9503 30.8066 29.4292 33.212 44.3135 34.8258C44.3443 33.6129 44.3957 32.8419 42.751 32.6466C29.2956 31.1047 17.9063 28.833 6.73285 24.1663C3.26877 22.7169 1.86053 20.1677 1.08959 17.0429C14.0824 22.6861 28.1957 25.8418 42.7099 27.6304C42.7716 26.7258 42.8435 25.6465 40.911 25.3998C28.3705 23.7346 16.2205 21.0106 4.92372 16.4878C0.442004 14.6786 0.0822333 10.9473 0 8.21306C0 8.21306 15.7477 15.8813 32.441 18.0297C47.8186 20.0033 53.4825 18.4511 62.9804 19.9621C66.4034 20.5069 68.9732 21.4423 70.9981 22.8197L70.9879 22.8095ZM119.475 53.8628C119.207 54.7879 118.92 55.7028 118.611 56.6073C120.811 55.3738 122.188 53.6161 122.815 51.3752C130.792 50.594 133.763 44.3751 132.529 37.7965C136.353 35.3603 138.152 31.5879 137.957 26.6539C136.589 27.0034 136.034 27.8668 135.808 29.6348C135.274 32.8008 133.423 35.4425 129.178 37.3031C130.936 44.8685 127.749 48.9082 121.582 50.0698C121.243 51.7453 120.492 52.9582 119.464 53.8525L119.475 53.8628ZM67.9864 56.7204C67.6883 55.8467 67.4107 54.9524 67.1435 54.0581C65.9922 53.1433 65.1596 51.8789 64.7895 50.0801C58.622 48.9185 55.4355 44.8788 57.1932 37.3134C52.9377 35.4528 51.0977 32.8111 50.5632 29.6451C50.337 27.8771 49.782 27.0136 48.4148 26.6641C48.2195 31.5981 50.0287 35.3706 53.8422 37.8068C52.6087 44.3751 55.5794 50.6043 63.556 51.3855C64.2036 53.6983 65.6633 55.4972 67.9864 56.7307V56.7204ZM92.204 64.4915L92.2554 61.2638C92.2657 60.2564 92.5124 59.5883 93.1703 59.1566C93.8076 59.5986 94.0954 60.2564 94.116 61.2638C94.1365 62.1375 94.116 63.258 94.1057 64.4915H93.2731V60.1948L93.0778 64.4915H92.1938H92.204ZM92.3274 72.6223C92.8619 72.5811 93.4273 72.5811 93.9823 72.6223L93.674 75.2846C93.3142 75.2229 92.9853 75.2332 92.6255 75.2846L92.3274 72.6325V72.6223ZM88.925 71.7896L89.5726 71.214C92.0087 72.1289 94.2702 72.0775 96.6755 71.214L97.3642 71.7896C94.7019 72.5811 91.8443 72.612 88.9147 71.7896H88.925ZM92.1629 75.7677C92.5124 75.3565 93.859 75.3462 94.1777 75.8088C94.2599 76.0863 94.229 76.5181 94.0851 76.7339C93.4478 77.104 92.903 77.1143 92.2246 76.7339C92.0807 76.4769 92.0807 76.0658 92.1629 75.7677ZM93.2628 70.4122H94.116V71.6046C93.8384 71.6355 93.5506 71.656 93.2628 71.6663V70.4225V70.4122ZM92.2246 70.4122H93.0881V71.656C92.8002 71.656 92.5124 71.6355 92.2246 71.5943V70.4122ZM85.1525 63.3505H85.8104V64.7484H88.8016L88.8222 63.371H91.6181V64.7895H94.6299V63.371H97.5081V64.7895H100.51V63.371H101.178C101.147 65.7352 100.962 68.0789 100.51 70.1758L85.8926 70.2067C85.3581 68.0789 85.2142 65.7455 85.1628 63.3607L85.1525 63.3505ZM102.298 58.0259C102.308 71.913 101.568 74.5342 93.3964 78.5739C84.5152 74.3697 84.0938 71.7074 84.0835 58.4267L102.298 58.0156V58.0259Z" fill="#231F20"/>
<path fill-rule="evenodd" clip-rule="evenodd" d="M311.849 10.9679C313.093 10.9679 314.09 11.9649 314.09 13.2087C314.09 14.4525 313.083 15.4496 311.849 15.4496C310.616 15.4496 309.608 14.4422 309.608 13.2087C309.608 11.9752 310.616 10.9679 311.849 10.9679ZM310.04 35.3089V22.9636H307.028V19.6743H313.802V35.3089H316.814V38.5982H307.028V35.3089H310.04ZM227.92 72.4783V62.6104H231.291V65.0157C233.018 67.9452 235.023 69.5077 237.623 69.5077C240.388 69.5077 242.434 67.5443 242.434 64.9334C242.434 59.5986 233.892 61.4488 229.647 57.1932C228.598 56.155 227.838 54.5515 227.838 52.2592C227.838 47.2019 231.682 44.7966 235.773 44.7966C237.942 44.7966 240.018 45.5161 241.869 46.9244V45.1152H245.24V53.3386H241.869V51.4575C240.388 49.2886 238.579 48.2915 236.092 48.2915C233.327 48.2915 231.517 49.6997 231.517 51.7761C231.517 52.7012 231.877 53.5441 232.443 54.0992C234.57 56.227 241.108 55.8569 244.274 59.0332C245.713 60.4723 246.597 62.6823 246.597 64.882C246.597 69.4974 242.907 72.8998 237.973 72.8998C235.485 72.8998 233.244 72.0158 231.281 70.2169V72.4681H227.91L227.92 72.4783ZM263.64 45.2591H265.809C265.809 48.5485 264.565 50.6762 262.242 50.6762C259.919 50.6762 257.668 48.2298 256.229 48.2298C255.303 48.2298 255.108 49.0316 255.108 50.3884H252.867C252.867 46.616 254.553 45.1358 256.434 45.1358C258.562 45.1358 260.967 47.5411 262.252 47.5411C263.177 47.5411 263.619 46.8216 263.66 45.2489L263.64 45.2591ZM249.372 63.0215C249.372 57.2858 253.618 52.9993 259.353 52.9993C265.089 52.9993 269.293 57.2858 269.293 63.0215C269.293 68.7573 265.007 73.0437 259.312 73.0437C253.618 73.0437 249.372 68.7573 249.372 63.0215ZM253.381 63.0215C253.381 66.7117 255.951 69.4357 259.312 69.4357C262.674 69.4357 265.285 66.7117 265.285 63.0215C265.285 59.3313 262.715 56.6073 259.312 56.6073C255.91 56.6073 253.381 59.3724 253.381 63.0215ZM268.851 80.7839V77.4123C269.612 77.5357 270.054 77.5768 270.702 77.5768C273.302 77.5768 274.032 76.3741 274.032 73.6913V56.854H271.103V53.5647H277.794V72.3653C277.794 76.775 277.558 80.9895 271.02 80.9895C270.219 80.9895 269.622 80.9484 268.851 80.7839ZM275.79 44.8582C277.034 44.8582 278.041 45.8553 278.041 47.1094C278.041 48.3634 277.034 49.3502 275.79 49.3502C274.546 49.3502 273.549 48.3429 273.549 47.1094C273.549 45.8759 274.546 44.8582 275.79 44.8582ZM301.118 69.189V72.4783H294.539V70.1553C292.175 72.0775 290.53 72.797 288.443 72.797C284.835 72.797 282.029 70.1553 282.029 66.7837C282.029 63.4121 285.031 60.647 288.927 60.647C290.612 60.647 292.576 61.2432 294.097 62.2506V59.763C294.097 57.0802 292.134 56.1139 289.883 56.1139C288.084 56.1139 286.675 56.8746 285.833 58.3548L282.266 57.3885C283.869 54.459 286.593 52.9788 290.448 52.9788C295.978 52.9788 297.869 55.7439 297.869 58.7865V69.1685H301.118V69.189ZM294.097 67.6677V65.4268C292.493 64.1831 290.808 63.5458 289.204 63.5458C287.117 63.5458 285.596 64.9129 285.596 66.794C285.596 68.6751 286.994 69.9188 288.999 69.9188C290.684 69.9188 292.565 69.0759 294.087 67.6677H294.097ZM307.141 69.189V56.8437H303.975V53.5544H310.914V55.9186C313.113 54.1506 315.241 53.2255 317.328 53.2255C319.415 53.2255 321.1 54.274 321.902 56.1962C324.626 54.0684 326.548 53.2255 328.717 53.2255C331.842 53.2255 333.764 55.1477 333.764 58.437V69.1787H337.012V72.4681H330.002V59.2799C330.002 57.4297 329.159 56.5148 327.71 56.5148C326.189 56.5148 324.225 57.4399 322.334 59.0024V69.189H325.582V72.4783H318.561V59.3621C318.561 57.3577 317.441 56.6793 316.238 56.6793C314.871 56.6793 313.196 57.3988 310.903 59.0024V69.189H314.152V72.4783H303.687V69.189H307.131H307.141ZM359.421 69.189V72.4783H352.4V70.3094C350.273 71.9541 348.186 72.797 346.223 72.797C342.779 72.797 340.97 70.9159 340.97 66.9482V56.8437H338.287V53.5544H344.742V66.7426C344.742 68.6648 345.544 69.5077 346.983 69.5077C348.546 69.5077 350.715 68.5825 352.4 67.1023V56.8335H349.152V53.5441H356.173V69.1787H359.421V69.189ZM381.994 69.189V72.4783H374.973V70.3094C372.846 71.9541 370.769 72.797 368.796 72.797C365.352 72.797 363.543 70.9159 363.543 66.9482V56.8437H360.86V53.5544H367.315V66.7426C367.315 68.6648 368.117 69.5077 369.556 69.5077C371.119 69.5077 373.288 68.5825 374.973 67.1023V56.8335H371.725V53.5441H378.746V69.1787H381.994V69.189ZM385.294 72.4783V65.9819H388.624V66.6295C388.943 68.5106 390.67 69.6721 393.157 69.6721C395.645 69.6721 397.043 68.747 397.043 67.3079C397.043 63.7822 390.392 66.0333 386.774 62.4048C385.89 61.5105 385.294 60.1845 385.294 58.7865C385.294 55.5486 388.1 53.2152 391.955 53.2152C393.681 53.2152 395.316 53.6161 396.56 54.2945V53.5339H399.849V59.7836H396.56V58.6118C395.48 57.0082 394.072 56.2887 392.15 56.2887C390.228 56.2887 388.819 57.2138 388.819 58.6118C388.819 61.7777 396.118 59.9275 399.243 63.0729C400.363 64.2036 400.846 65.6838 400.846 67.0098C400.846 70.4534 397.917 72.7764 393.589 72.7764C391.543 72.7764 389.981 72.3344 388.614 71.4196V72.4578H385.283L385.294 72.4783ZM423.501 63.9364H407.579C408.134 67.6266 410.55 69.7544 414.075 69.7544C416.522 69.7544 418.804 68.6648 420.212 66.6706L423.501 68.1097C421.456 71.2757 418.043 73.0437 413.993 73.0437C407.856 73.0437 403.447 68.8704 403.447 63.0215C403.447 57.1727 408.463 52.9993 413.387 52.9993C418.639 52.9993 423.491 57.0082 423.491 63.9466L423.501 63.9364ZM407.702 61.2124H419.688C419.092 58.2006 416.44 56.0009 413.479 56.0009C410.519 56.0009 408.268 58.0464 407.702 61.2124ZM445.91 69.189V72.4783H438.889V70.3094C436.761 71.9541 434.675 72.797 432.722 72.797C429.268 72.797 427.469 70.9159 427.469 66.9482V56.8437H424.776V53.5544H431.231V66.7426C431.231 68.6648 432.033 69.5077 433.482 69.5077C435.045 69.5077 437.214 68.5825 438.9 67.1023V56.8335H435.651V53.5441H442.672V69.1787H445.92L445.91 69.189ZM452.129 69.189V56.8437H448.963V53.5544H455.901V55.9186C458.101 54.1506 460.229 53.2255 462.315 53.2255C464.402 53.2255 466.088 54.274 466.89 56.1962C469.614 54.0684 471.546 53.2255 473.705 53.2255C476.83 53.2255 478.762 55.1477 478.762 58.437V69.1787H482.01V72.4681H475V59.2799C475 57.4297 474.157 56.5148 472.718 56.5148C471.197 56.5148 469.233 57.4399 467.342 59.0024V69.189H470.59V72.4783H463.57V59.3621C463.57 57.3577 462.449 56.6793 461.246 56.6793C459.879 56.6793 458.204 57.3988 455.912 59.0024V69.189H459.16V72.4783H448.696V69.189H452.149H452.129ZM231.209 35.1856V14.7814H227.683V11.3687H250.256V19.551H246.885V14.7814H235.3V22.8814H245.405V26.2941H235.3V35.1958H246.885V30.2207H250.256V38.5982H227.683V35.1856H231.209ZM273.107 30.0563H257.185C257.75 33.7465 260.155 35.8743 263.681 35.8743C266.127 35.8743 268.409 34.795 269.818 32.7905L273.107 34.2296C271.061 37.3956 267.649 39.1636 263.599 39.1636C257.462 39.1636 253.052 34.9903 253.052 29.1414C253.052 23.2926 258.069 19.1192 263.003 19.1192C268.255 19.1192 273.107 23.1281 273.107 30.0665V30.0563ZM257.308 27.3323H269.293C268.697 24.3205 266.045 22.1207 263.085 22.1207C260.124 22.1207 257.873 24.1663 257.308 27.3323ZM276.232 38.5982V32.1018H279.562V32.7494C279.881 34.6305 281.608 35.792 284.095 35.792C286.583 35.792 287.981 34.8772 287.981 33.4381C287.981 29.9123 281.33 32.1635 277.712 28.5349C276.828 27.6407 276.232 26.3249 276.232 24.9167C276.232 21.6787 279.038 19.3557 282.882 19.3557C284.609 19.3557 286.254 19.7565 287.498 20.435V19.6743H290.787V25.9343H287.498V24.7625C286.418 23.1589 285.01 22.4394 283.088 22.4394C281.166 22.4394 279.758 23.3645 279.758 24.7625C279.758 27.9285 287.056 26.0782 290.181 29.2236C291.301 30.3544 291.784 31.8346 291.784 33.1606C291.784 36.6041 288.855 38.9272 284.527 38.9272C282.482 38.9272 280.919 38.4852 279.552 37.56V38.5982H276.222H276.232ZM294.159 22.9534V19.664H296.605V16.7345L300.378 13.3218V19.6538H303.862V22.9431H300.378V33.8904C300.378 35.7304 302.022 35.6584 303.862 35.0108V38.3824C302.978 38.6599 301.981 38.9066 301.097 38.9066C298.445 38.9066 296.605 37.704 296.605 34.4146V22.9431H294.159V22.9534ZM229.606 100.14H228.136V101.609H232.72V100.14H231.374V91.3406H232.895V89.8707H228.136V91.3406H229.606V100.14ZM231.456 95.4009L235.074 100.14H233.81V101.609H238.579V100.14H237.315L233.614 95.4009L237.212 91.3406H238.456V89.8707H233.851V91.3406H235.197L231.446 95.4009H231.456ZM240.625 100.14H239.34V101.609H243.667V100.14H242.383V91.3406H243.667V89.8707H239.34V91.3406H240.625V100.14ZM246.145 100.14H244.469V101.609H249.29V100.14H247.594V91.7004L253.196 101.733H255.046V91.3406H256.773V89.8707H251.942V91.3406H253.587V98.9986L248.468 89.8707H244.459V91.3406H246.134V100.14H246.145ZM258.469 91.3406V100.14H256.876V101.609H262.232C266.456 101.609 268.368 99.4097 268.368 95.627C268.368 92.8002 266.929 89.8707 262.386 89.8707H256.866V91.3406H258.459H258.469ZM260.237 91.3406H262.345C265.336 91.3406 266.58 93.1703 266.58 95.6784C266.58 98.1865 265.562 100.14 262.304 100.14H260.227V91.3406H260.237ZM270.404 100.14H268.8V101.609H273.693V100.14H272.172V96.1101H273.847L276.509 101.609H279.048V100.14H277.609L275.533 95.8634C277.106 95.4625 277.948 94.4244 277.948 92.9236C277.948 91.1453 276.859 89.8604 274.217 89.8604H268.79V91.3303H270.393V100.129L270.404 100.14ZM272.172 94.6402V91.3406H274.32C275.44 91.3406 276.17 91.8957 276.17 92.9339C276.17 93.7151 275.821 94.6505 274.166 94.6505H272.182L272.172 94.6402ZM286.357 97.4773L287.22 100.14H285.771V101.609H290.376V100.14H289.06L285.894 91.1864H287.282V89.8707H281.279V91.1864H282.667L279.449 100.14H278.031V101.609H282.667V100.14H281.228L282.142 97.4773H286.367H286.357ZM285.905 96.1101H282.564L284.188 91.1864L285.905 96.1101ZM292.37 100.14H290.818V101.609H299.432V96.1512H297.808V100.14H294.138V91.3406H295.629V89.8707H290.818V91.3406H292.37V100.14ZM305.702 100.14H304.14V101.609H312.754V96.1512H311.13V100.14H307.46V91.3406H308.95V89.8707H304.14V91.3406H305.702V100.14ZM321.111 97.4773L321.974 100.14H320.525V101.609H325.13V100.14H323.814L320.648 91.1864H322.036V89.8707H316.033V91.1864H317.42L314.203 100.14H312.785V101.609H317.42V100.14H315.981L316.896 97.4773H321.111ZM320.669 96.1101H317.328L318.952 91.1864L320.669 96.1101ZM326.98 100.14H325.705V101.609H330.033V100.14H328.758V91.3406H330.033V89.8707H325.705V91.3406H326.98V100.14ZM332.562 91.3406V100.14H330.968V101.609H336.334C340.549 101.609 342.471 99.4097 342.471 95.627C342.471 92.8002 341.032 89.8707 336.488 89.8707H330.968V91.3406H332.562ZM334.33 91.3406H336.437C339.428 91.3406 340.672 93.1703 340.672 95.6784C340.672 98.1865 339.654 100.14 336.396 100.14H334.319V91.3406H334.33ZM343.355 95.7504C343.355 99.2967 345.873 101.805 349.43 101.805C352.986 101.805 355.494 99.2761 355.494 95.7504C355.494 92.2246 352.955 89.6754 349.43 89.6754C345.904 89.6754 343.355 92.2041 343.355 95.7504ZM345.298 95.7504C345.298 93.2114 347.096 91.2378 349.43 91.2378C351.763 91.2378 353.562 93.2114 353.562 95.7504C353.562 98.2893 351.763 100.253 349.43 100.253C347.096 100.253 345.298 98.279 345.298 95.7504ZM357.417 100.14H355.741V101.609H360.562V100.14H358.866V91.7004L364.468 101.733H366.318V91.3406H368.045V89.8707H363.214V91.3406H364.859V98.9986L359.74 89.8707H355.731V91.3406H357.406V100.14H357.417ZM369.423 100.14H367.901V101.609H377.636V97.9912H376.186V100.14H371.191V96.3054H375.549V94.8355H371.191V91.3406H376.186V93.3964H377.636V89.8707H367.901V91.3406H369.423V100.14ZM380.062 100.14H378.458V101.609H383.351V100.14H381.83V96.1101H383.505L386.167 101.609H388.706V100.14H387.278L385.201 95.8634C386.774 95.4625 387.627 94.4244 387.627 92.9236C387.627 91.1453 386.537 89.8604 383.896 89.8604H378.468V91.3303H380.072V100.129L380.062 100.14ZM381.819 94.6402V91.3406H383.968C385.088 91.3406 385.818 91.8957 385.818 92.9339C385.818 93.7151 385.468 94.6505 383.814 94.6505H381.83L381.819 94.6402ZM390.834 100.14H389.56V101.609H393.887V100.14H392.602V91.3406H393.887V89.8707H389.56V91.3406H390.834V100.14ZM400.599 100.14H399.16V101.609H403.313V100.14H402.049V91.3406L406.047 101.733H406.397L410.395 91.32L410.426 100.14H409.162V101.609H413.469V100.14H412.05V91.3406H413.469V89.8707H409.367L406.273 97.909L403.21 89.8707H399.16V91.3406H400.599V100.14ZM422.134 91.3406V98.0015C422.134 99.6462 421.445 100.386 419.698 100.386C418.372 100.386 417.344 99.8209 417.344 98.1351V91.3406H418.711V89.8707H414.106V91.3406H415.576V98.0837C415.576 100.088 416.44 101.805 419.832 101.805C421.702 101.805 423.902 101.126 423.902 98.1043V91.3406H425.372V89.8707H420.767V91.3406H422.134ZM433.153 91.3406V98.0015C433.153 99.6462 432.454 100.386 430.707 100.386C429.381 100.386 428.353 99.8209 428.353 98.1351V91.3406H429.72V89.8707H425.115V91.3406H426.585V98.0837C426.585 100.088 427.449 101.805 430.841 101.805C432.711 101.805 434.911 101.126 434.911 98.1043V91.3406H436.381V89.8707H431.776V91.3406H433.143H433.153ZM437.203 101.609H438.653V100.643C439.496 101.424 440.472 101.805 441.541 101.805C443.669 101.805 445.262 100.335 445.262 98.351C445.262 97.395 444.882 96.4493 444.255 95.8223C442.888 94.4552 440.071 94.6094 439.157 93.6945C438.91 93.4581 438.756 93.0881 438.756 92.6872C438.756 91.7929 439.537 91.1864 440.729 91.1864C441.798 91.1864 442.579 91.6181 443.217 92.5535V93.3656H444.676V89.8193H443.217V90.6005C442.415 89.994 441.521 89.6857 440.585 89.6857C438.828 89.6857 437.162 90.7238 437.162 92.903C437.162 93.8898 437.491 94.5785 437.944 95.0308C439.773 96.8605 443.463 96.069 443.463 98.3715C443.463 99.492 442.579 100.345 441.387 100.345C440.267 100.345 439.393 99.6667 438.653 98.4024V97.3642H437.203V101.62V101.609ZM447.452 100.14H445.93V101.609H455.665V97.9912H454.215V100.14H449.22V96.3054H453.578V94.8355H449.22V91.3406H454.215V93.3964H455.665V89.8707H445.93V91.3406H447.452V100.14ZM464.505 91.3406V98.0015C464.505 99.6462 463.816 100.386 462.069 100.386C460.732 100.386 459.715 99.8209 459.715 98.1351V91.3406H461.082V89.8707H456.487V91.3406H457.957V98.0837C457.957 100.088 458.821 101.805 462.213 101.805C464.083 101.805 466.283 101.126 466.283 98.1043V91.3406H467.753V89.8707H463.158V91.3406H464.525H464.505ZM469.131 100.14H467.691V101.609H471.844V100.14H470.58V91.3406L474.578 101.733H474.928L478.927 91.32L478.957 100.14H477.693V101.609H482V100.14H480.582V91.3406H482V89.8707H477.899L474.805 97.909L471.741 89.8707H467.691V91.3406H469.131V100.14ZM207.773 0H209.787V114.109H207.773V0Z" fill="#231F20"/>
<path fill-rule="evenodd" clip-rule="evenodd" d="M75.963 101.651H81.5857V99.8106H80.0746V90.1585H75.8602V91.9984H77.5459V99.8003H75.9527V101.64M84.4227 98.721C84.5872 100.653 85.7384 101.805 87.6709 101.805C90.5696 101.805 91.9573 99.6564 91.9573 95.7812C91.9573 91.9059 90.621 89.9734 87.8148 89.9734C85.6151 89.9734 84.2994 91.3097 84.2994 94.0337C84.2994 96.2643 85.6665 97.4875 87.4448 97.4875C88.2774 97.4875 88.8839 97.2717 89.4698 96.7474C89.4492 98.9266 88.7091 100.016 87.7634 100.016C86.9 100.016 86.6327 99.3275 86.4169 98.5668L84.433 98.7313L84.4227 98.721ZM89.4698 95.1336C89.0175 95.4522 88.5241 95.627 88.0307 95.627C87.1672 95.627 86.6224 94.9177 86.6224 93.7767C86.6224 92.5432 87.0747 91.834 87.8559 91.834C89.0586 91.834 89.4492 93.1189 89.4595 95.1336H89.4698ZM94.6402 101.651H100.263V99.8106H98.7518V90.1585H94.5374V91.9984H96.2232V99.8003H94.6299V101.64L94.6402 101.651ZM103.11 98.721C103.285 100.653 104.426 101.805 106.358 101.805C109.247 101.805 110.635 99.6564 110.635 95.7812C110.635 91.9059 109.298 89.9734 106.492 89.9734C104.292 89.9734 102.977 91.3097 102.977 94.0337C102.977 96.2643 104.344 97.4875 106.122 97.4875C106.955 97.4875 107.561 97.2717 108.147 96.7474C108.126 98.9266 107.386 100.016 106.441 100.016C105.577 100.016 105.31 99.3275 105.084 98.5668L103.1 98.7313L103.11 98.721ZM108.147 95.1336C107.695 95.4522 107.201 95.627 106.708 95.627C105.844 95.627 105.3 94.9177 105.3 93.7767C105.3 92.5432 105.762 91.834 106.533 91.834C107.736 91.834 108.126 93.1189 108.137 95.1336H108.147Z" fill="#231F20"/>
</g>
<defs>
<clipPath id="clip0_1_12">
<rect width="482" height="114.109" fill="white"/>
</clipPath>
</defs>
</svg>
