<svg width="195" height="155" viewBox="0 0 195 155" fill="none" xmlns="http://www.w3.org/2000/svg">
<g clip-path="url(#clip0_1_233)">
<path d="M180.26 146.28H179.19V145.13H182.78V146.28H181.63V151.56C181.63 153.92 179.92 154.45 178.46 154.45C175.82 154.45 175.14 153.11 175.14 151.55V146.28H173.99V145.13H177.58V146.28H176.51V151.59C176.51 152.9 177.31 153.35 178.35 153.35C179.71 153.35 180.25 152.77 180.25 151.49V146.29M166.95 153.16V146.29H165.76V145.14H173.36V147.89H172.23V146.28H168.33V149.01H171.73V150.16H168.33V153.16H172.23V151.49H173.36V154.31H165.76V153.16H166.95ZM158.67 154.3V150.98H159.8V151.79C160.38 152.77 161.06 153.3 161.93 153.3C162.86 153.3 163.55 152.64 163.55 151.76C163.55 149.96 160.68 150.59 159.24 149.15C158.89 148.8 158.63 148.26 158.63 147.49C158.63 145.79 159.93 144.98 161.3 144.98C162.03 144.98 162.73 145.22 163.35 145.7V145.09H164.48V147.86H163.35V147.23C162.85 146.5 162.24 146.16 161.41 146.16C160.48 146.16 159.87 146.63 159.87 147.33C159.87 147.64 159.99 147.92 160.18 148.12C160.89 148.83 163.09 148.71 164.16 149.78C164.65 150.27 164.94 151.01 164.94 151.75C164.94 153.3 163.7 154.45 162.04 154.45C161.2 154.45 160.45 154.15 159.78 153.54V154.3H158.65H158.67ZM155.51 146.28H154.44V145.13H158.03V146.28H156.88V151.56C156.88 153.92 155.17 154.45 153.71 154.45C151.06 154.45 150.39 153.11 150.39 151.55V146.28H149.24V145.13H152.83V146.28H151.76V151.59C151.76 152.9 152.55 153.35 153.6 153.35C154.96 153.35 155.5 152.77 155.5 151.49V146.29L155.51 146.28ZM138.7 153.16V146.29H137.58V145.14H140.74L143.13 151.42L145.55 145.14H148.75V146.29H147.64V153.16H148.75V154.31H145.39V153.16H146.38V146.28L143.23 154.41H142.96L139.87 146.3L139.84 153.17H140.83V154.32H137.59V153.17H138.71L138.7 153.16ZM128.54 148.86H130.09C131.39 148.86 131.66 148.13 131.66 147.52C131.66 146.71 131.09 146.28 130.22 146.28H128.55V148.86H128.54ZM127.16 153.16V146.29H125.91V145.14H130.15C132.22 145.14 133.07 146.14 133.07 147.53C133.07 148.7 132.41 149.51 131.18 149.82L132.8 153.15H133.92V154.3H131.93L129.85 150.01H128.54V153.16H129.73V154.31H125.91V153.16H127.16ZM118.86 153.16V146.29H117.67V145.14H125.27V147.89H124.14V146.28H120.24V149.01H123.64V150.16H120.24V153.16H124.14V151.49H125.27V154.31H117.67V153.16H118.86ZM108.95 153.16V146.29H107.64V145.14H110.77L114.74 152.27L114.77 146.29H113.49V145.14H117.26V146.29H115.91V154.4H114.47L110.12 146.57L110.09 153.16H111.41V154.31H107.64V153.16H108.95ZM98.94 149.73C98.94 151.7 100.34 153.24 102.17 153.24C104 153.24 105.4 151.7 105.4 149.73C105.4 147.76 103.99 146.21 102.17 146.21C100.35 146.21 98.94 147.75 98.94 149.73ZM97.43 149.73C97.43 146.96 99.41 144.99 102.17 144.99C104.93 144.99 106.91 146.97 106.91 149.73C106.91 152.49 104.93 154.46 102.17 154.46C99.41 154.46 97.43 152.5 97.43 149.73ZM89.71 146.28V153.15H91.33C93.87 153.15 94.66 151.6 94.66 149.67C94.66 147.74 93.69 146.28 91.35 146.28H89.7H89.71ZM88.33 146.28H87.09V145.13H91.4C94.95 145.13 96.07 147.43 96.07 149.63C96.07 152.59 94.57 154.3 91.28 154.3H87.09V153.15H88.33V146.28ZM84.1 153.16V146.29H83.1V145.14H86.47V146.29H85.47V153.16H86.47V154.31H83.1V153.16H84.1ZM79.31 150.01L78.1 146.16L76.71 150.01H79.32H79.31ZM79.66 151.08H76.37L75.65 153.16H76.77V154.31H73.15V153.16H74.26L76.77 146.17H75.69V145.14H80.37V146.17H79.29L81.76 153.16H82.79V154.31H79.2V153.16H80.33L79.66 151.08ZM67.63 153.16V146.29H66.42V145.14H70.17V146.29H69.01V153.16H71.87V150.04H73.14V154.31H66.42V153.16H67.63ZM57.22 153.16V146.29H56.01V145.14H59.76V146.29H58.6V153.16H61.46V150.04H62.73V154.31H56.01V153.16H57.22ZM52.44 150.01L51.22 146.16L49.83 150.01H52.44ZM52.79 151.08H49.5L48.78 153.16H49.9V154.31H44.43L42.35 150.02H41.04V153.17H42.23V154.32H38.41V153.17H39.67V146.3H38.41V145.15H42.65C44.72 145.15 45.56 146.15 45.56 147.54C45.56 148.71 44.9 149.52 43.67 149.83L45.29 153.16H47.38L49.89 146.17H48.81V145.14H53.49V146.17H52.41L54.88 153.16H55.91V154.31H52.32V153.16H53.45L52.78 151.08H52.79ZM41.05 148.86H42.6C43.9 148.86 44.17 148.13 44.17 147.52C44.17 146.71 43.6 146.28 42.73 146.28H41.06V148.86H41.05ZM31.37 153.16V146.29H30.18V145.14H37.78V147.89H36.65V146.28H32.75V149.01H36.15V150.16H32.75V153.16H36.65V151.49H37.78V154.31H30.18V153.16H31.37ZM21.46 153.16V146.29H20.15V145.14H23.28L27.25 152.27L27.28 146.29H26V145.14H29.77V146.29H28.42V154.4H26.98L22.63 146.57L22.6 153.16H23.92V154.31H20.15V153.16H21.46ZM13.22 153.16V146.29H12.03V145.14H19.63V147.89H18.5V146.28H14.6V149.01H18V150.16H14.6V153.16H18.5V151.49H19.63V154.31H12.03V153.16H13.22ZM7.64997 149.88H11C11.08 153.23 8.72997 154.47 6.33997 154.47C2.43997 154.47 1.46997 151.49 1.46997 149.69C1.46997 147.56 2.74997 144.99 6.09997 144.99C7.40997 144.99 8.34997 145.34 9.30997 146.15V145.14H10.48V148.15H9.30997C8.77997 146.99 7.55997 146.2 6.21997 146.2C4.29997 146.2 2.97997 147.63 2.97997 149.7C2.97997 151.77 4.39997 153.24 6.34997 153.24C7.86997 153.24 9.08997 152.32 9.30997 151.03H7.64997V149.88ZM184.41 153.16V146.29H183.29V145.14H186.45L188.84 151.42L191.26 145.14H194.46V146.29H193.35V153.16H194.46V154.31H191.1V153.16H192.08V146.28L188.93 154.41H188.66L185.57 146.3L185.54 153.17H186.52V154.32H183.28V153.17H184.4L184.41 153.16Z" fill="#231F20"/>
<path d="M168.5 136.5V126.64H165.97V124.02H171.51V125.91C173.27 124.5 174.97 123.76 176.63 123.76C178.29 123.76 179.64 124.59 180.28 126.13C182.46 124.43 183.99 123.76 185.72 123.76C188.22 123.76 189.75 125.3 189.75 127.92V136.5H192.34V139.12H186.74V128.59C186.74 127.12 186.07 126.38 184.92 126.38C183.7 126.38 182.13 127.12 180.63 128.36V136.49H183.22V139.11H177.62V128.64C177.62 127.04 176.73 126.5 175.76 126.5C174.67 126.5 173.33 127.07 171.5 128.36V136.49H174.09V139.11H165.74V136.49H168.49L168.5 136.5ZM164.53 136.5V139.12H158.93V137.39C157.23 138.7 155.57 139.38 154 139.38C151.25 139.38 149.81 137.87 149.81 134.71V126.64H147.67V124.02H152.82V134.55C152.82 136.09 153.46 136.76 154.61 136.76C155.86 136.76 157.59 136.02 158.93 134.84V126.65H156.34V124.03H161.94V136.51H164.53V136.5ZM133.04 130.13H142.61C142.13 127.73 140.02 125.97 137.65 125.97C135.28 125.97 133.49 127.6 133.04 130.13ZM145.65 132.3H132.94C133.39 135.25 135.31 136.94 138.13 136.94C140.08 136.94 141.91 136.07 143.03 134.47L145.66 135.62C144.03 138.15 141.31 139.56 138.07 139.56C133.17 139.56 129.65 136.23 129.65 131.56C129.65 126.89 133.65 123.56 137.59 123.56C141.78 123.56 145.66 126.76 145.66 132.3H145.65ZM115.15 139.12V133.93H117.81V134.45C118.07 135.95 119.44 136.87 121.43 136.87C123.42 136.87 124.53 136.14 124.53 134.99C124.53 132.17 119.22 133.97 116.34 131.08C115.63 130.37 115.15 129.31 115.15 128.19C115.15 125.6 117.39 123.75 120.46 123.75C121.83 123.75 123.15 124.07 124.14 124.61V124H126.76V128.99H124.14V128.06C123.28 126.78 122.15 126.21 120.62 126.21C119.09 126.21 117.96 126.94 117.96 128.06C117.96 130.59 123.79 129.11 126.28 131.62C127.18 132.52 127.56 133.71 127.56 134.76C127.56 137.51 125.22 139.36 121.77 139.36C120.14 139.36 118.89 139.01 117.8 138.27V139.1H115.14L115.15 139.12ZM113.51 136.5V139.12H107.91V137.39C106.21 138.7 104.55 139.38 102.98 139.38C100.23 139.38 98.79 137.87 98.79 134.71V126.64H96.65V124.02H101.8V134.55C101.8 136.09 102.44 136.76 103.59 136.76C104.84 136.76 106.57 136.02 107.91 134.84V126.65H105.32V124.03H110.92V136.51H113.51V136.5ZM71.23 136.4V120.11H68.57V117.39H76.06L81.72 132.27L87.45 117.39H95.04V120.11H92.42V136.4H95.04V139.12H87.07V136.4H89.41V120.08L81.95 139.35H81.31L73.98 120.11L73.92 136.4H76.26V139.12H68.58V136.4H71.24H71.23ZM50.2 136.5V126.64H47.16V124.02H52.57V127.41C53.6 124.88 55.51 123.76 57.4 123.76H59.35V126.77H57.75C54.26 126.77 53.21 128.72 53.21 132.18V136.5H56.47V139.12H47.22V136.5H50.2ZM40.5 135.28V133.49C39.22 132.5 37.88 131.99 36.6 131.99C34.94 131.99 33.72 133.08 33.72 134.58C33.72 136.08 34.84 137.08 36.44 137.08C37.78 137.08 39.29 136.41 40.51 135.29L40.5 135.28ZM46.11 136.5V139.12H40.86V137.26C38.97 138.8 37.66 139.37 35.99 139.37C33.11 139.37 30.87 137.26 30.87 134.57C30.87 131.88 33.27 129.67 36.38 129.67C37.72 129.67 39.29 130.15 40.51 130.95V128.97C40.51 126.82 38.94 126.06 37.15 126.06C35.71 126.06 34.59 126.67 33.92 127.85L31.07 127.08C32.35 124.74 34.53 123.56 37.6 123.56C42.02 123.56 43.52 125.77 43.52 128.2V136.49H46.11V136.5ZM8.16 139.35L2.62 120.12H0V117.4H8.32V120.12H5.73L9.8 134.33L13.77 120.12H11.18V117.4H21.17V120.12H18.61L22.58 134.33L26.64 120.12H24.05V117.4H32.02V120.12H29.46L24.05 139.35H20.95L16.08 122.16L11.18 139.35H8.17H8.16Z" fill="#231F20"/>
<path d="M137.82 109.77V107.98C136.54 106.99 135.2 106.47 133.92 106.47C132.26 106.47 131.04 107.56 131.04 109.06C131.04 110.56 132.16 111.56 133.76 111.56C135.1 111.56 136.61 110.89 137.83 109.77H137.82ZM143.42 110.98V113.6H138.17V111.74C136.28 113.28 134.97 113.85 133.3 113.85C130.42 113.85 128.18 111.74 128.18 109.05C128.18 106.36 130.58 104.15 133.69 104.15C135.03 104.15 136.6 104.63 137.82 105.43V103.45C137.82 101.31 136.25 100.54 134.46 100.54C133.02 100.54 131.9 101.15 131.23 102.33L128.38 101.56C129.66 99.22 131.84 98.04 134.91 98.04C139.33 98.04 140.83 100.25 140.83 102.68V110.97H143.42V110.98ZM122.04 91.55C123.03 91.55 123.83 92.35 123.83 93.34C123.83 94.33 123.03 95.13 122.04 95.13C121.05 95.13 120.25 94.33 120.25 93.34C120.25 92.35 121.05 91.55 122.04 91.55ZM120.6 110.98V101.12H118.2V98.5H123.61V110.98H126.01V113.6H118.2V110.98H120.6ZM105.62 98.5V100.32C107.64 98.85 109.17 98.24 110.77 98.24C112.91 98.24 114.74 99.55 114.74 102.53V110.98H117.33V113.6H111.73V103.71C111.73 101.79 111.19 100.96 109.97 100.96C108.75 100.96 107.15 101.66 105.62 102.88V110.98H108.21V113.6H100.02V110.98H102.61V101.12H99.9501V98.5H105.62ZM85.1701 106.05C85.1701 109 87.2201 111.17 89.9101 111.17C92.6001 111.17 94.6801 108.99 94.6801 106.05C94.6801 103.11 92.6301 100.93 89.9101 100.93C87.1901 100.93 85.1701 103.14 85.1701 106.05ZM81.9601 106.05C81.9601 101.47 85.3501 98.05 89.9301 98.05C94.5101 98.05 97.8701 101.47 97.8701 106.05C97.8701 110.63 94.4401 114.05 89.9001 114.05C85.3601 114.05 81.9601 110.63 81.9601 106.05ZM72.0401 101.12V98.5H73.9901V96.16L77.0001 93.44V98.5H79.7901V101.12H77.0001V109.86C77.0001 111.33 78.3101 111.27 79.7901 110.76V113.45C79.0901 113.67 78.2901 113.87 77.5801 113.87C75.4701 113.87 74.0001 112.91 74.0001 110.29V101.14H72.0501L72.0401 101.12ZM57.7401 113.61V108.42H60.4001V108.94C60.6601 110.44 62.0301 111.37 64.0201 111.37C66.0101 111.37 67.1301 110.64 67.1301 109.49C67.1301 106.67 61.8201 108.47 58.9301 105.58C58.2301 104.87 57.7501 103.81 57.7501 102.7C57.7501 100.11 59.9901 98.26 63.0601 98.26C64.4401 98.26 65.7501 98.58 66.7401 99.12V98.51H69.3601V103.5H66.7401V102.57C65.8801 101.29 64.7501 100.72 63.2201 100.72C61.6901 100.72 60.5601 101.45 60.5601 102.57C60.5601 105.1 66.3901 103.62 68.8801 106.13C69.7701 107.03 70.1601 108.22 70.1601 109.27C70.1601 112.02 67.8201 113.87 64.3701 113.87C62.7401 113.87 61.4901 113.52 60.4001 112.78V113.61H57.7401ZM40.1301 110.89V94.6H37.3101V91.88H55.3301V98.41H52.6401V94.6H43.3901V101.07H51.4601V103.79H43.3901V110.9H52.6401V106.93H55.3301V113.62H37.3101V110.9H40.1301V110.89ZM150.3 98.5V100.32C152.32 98.85 153.85 98.24 155.45 98.24C157.59 98.24 159.42 99.55 159.42 102.53V110.98H162.01V113.6H156.41V103.71C156.41 101.79 155.87 100.96 154.65 100.96C153.43 100.96 151.83 101.66 150.3 102.88V110.98H152.89V113.6H144.7V110.98H147.29V101.12H144.63V98.5H150.3Z" fill="#231F20"/>
<path fill-rule="evenodd" clip-rule="evenodd" d="M78.97 29.63C78.97 29.47 79.02 29.32 79.1 29.2C79.39 28.7 79.8 28.28 80.31 27.95L78.9 27.85V28.24C78.42 28.45 78.28 28.18 78.28 27.8L76.77 27.77V25.98L78.26 26.02C78.32 25.57 78.42 25.48 78.6 25.48C78.82 25.5 78.94 25.65 78.98 25.94L80.51 25.97C80.62 25.58 80.64 25.46 80.94 25.46C81.15 25.49 81.25 25.65 81.25 25.94L82.19 25.96L82.21 24.69C81.9 24.5 81.11 23.99 81.06 22.87C81.13 20.83 82.97 20.58 83.3 20.59C83.61 20.57 85.46 20.59 85.56 22.77C85.56 24.11 84.7 24.55 84.54 24.62L84.36 25.96H85.41C85.45 25.48 85.83 25.35 85.95 25.58L86.03 25.96L87.69 25.93C87.76 25.54 87.87 25.44 88.06 25.44C88.34 25.47 88.46 25.64 88.44 25.94L89.89 25.98V27.74L88.4 27.84C88.36 28.37 88.26 28.47 88.06 28.46C87.77 28.44 87.76 28.03 87.76 27.79L86.31 27.89C86.97 28.29 87.43 28.79 87.69 29.36C87.36 29.36 87.24 29.37 86.91 29.61C86.74 29.85 86.59 30.11 86.51 30.42L86.42 30.92V31.35C86.44 31.88 86.53 32.27 86.62 32.65L86.84 33.21C86.93 33.38 87.04 33.55 87.16 33.71L87.57 34.24L87.35 35.06C87.18 35.39 87.11 35.52 87.01 35.67C86.52 36.26 86.07 36.44 85.51 36.61L84.95 36.73L84.39 36.88V38.25C85.14 38.13 87.26 37.75 88.37 36.52L88.76 36.1L88.08 35.98C88.08 35.98 89.23 34.77 89.52 34.4C90.29 33.43 90.7 32.29 90.96 31.15C92.12 32.56 91.61 36.61 90.36 37.91L90.22 37.37L90.03 36.74L89.66 37.29C88.78 38.6 87.59 39.33 86.41 39.9C85.92 40.14 85.33 40.38 84.77 40.66C84.3 40.89 83.84 41.16 83.45 41.49C83.11 41.18 82.78 40.97 82.43 40.8C82.03 40.6 81.6 40.46 81.1 40.25C80.14 39.85 78.93 39.22 77.2 37.57L76.82 37.21L76.68 37.71C75.11 36.67 74.46 32.9 75.92 31.34C76.03 33.43 77.44 34.89 78.92 36.01L78.02 36.11L78.53 36.58C79.38 37.37 80.55 38.11 81.78 38.26L82.35 38.31L82.33 36.85C81.81 36.73 81.53 36.68 81.25 36.61L80.78 36.46L80.26 36.21C80.11 36.11 79.97 35.98 79.85 35.84C79.63 35.55 79.56 35.45 79.5 35.32L79.22 34.68L79.19 34.05L79.63 33.6L79.88 33.2L80.12 32.52C80.22 32.02 80.27 31.79 80.28 31.57V30.93C80.29 30.67 80.23 30.4 80.14 30.16C80.07 29.94 80.01 29.83 79.83 29.58C79.73 29.54 79.42 29.3 79 29.58M84.33 23.13L84.43 22.71C84.46 22.27 84.13 21.98 83.9 21.85C83.67 21.73 83.38 21.73 83.34 21.72C83.3 21.72 82.95 21.7 82.71 21.82C82.45 21.95 82.18 22.31 82.17 22.78L82.25 23.22C82.89 22.91 83.59 22.88 84.34 23.12L84.33 23.13ZM109.66 38.86L110.98 38.05L109.65 37.3V38.85L109.66 38.86ZM117.18 22.77L116.85 23.63L116.77 24.27L116.53 24.78C116.49 25.57 116.35 25.85 116.17 26.07C116.31 26.51 116.19 26.7 116.06 26.86L116.02 27.31C115.93 27.54 115.82 27.69 115.7 27.81C115.34 28.6 115.15 28.89 114.86 29.08C114.76 29.58 114.5 29.79 114.19 29.94C114.19 30.51 114.06 30.59 113.94 30.64C113.94 30.81 114.03 30.97 114.08 31.13C113.86 31.62 113.95 31.73 114 31.85C113.93 32.15 113.78 32.23 113.64 32.27C113.8 32.64 113.86 32.77 113.83 32.9C113.58 33.14 113.49 33.15 113.42 33.16C113.39 33.4 113.48 33.71 113.42 34.06C113.17 34.2 113.05 34.18 112.95 34.16C113.05 34.66 113.06 34.91 112.95 35.12C112.67 35.19 112.54 35.17 112.42 35.13C112.45 35.65 112.43 35.9 112.31 36.07L111.79 35.97C111.76 36.29 111.74 36.39 111.71 36.47L111.24 36.64L113.04 38.02L111.5 38.87C111.55 39.08 111.48 39.37 111.22 39.42C111.16 39.56 111.04 39.7 110.83 39.74L110.41 39.83C110.15 39.85 110.05 39.79 109.98 39.72L109.45 40.01C110.06 40.3 110.65 40.64 111.01 41.24C110.77 41.51 110.54 41.52 110.26 41.5C109.82 41.46 109.43 41.34 109.08 41.2C108.74 41.06 108.42 40.89 108.09 40.74L106.34 39.89C106.25 40.18 106.19 40.31 106.08 40.4C105.69 40.38 105.61 40.5 105.48 40.59C105.03 40.49 104.91 40.57 104.76 40.61C104.31 40.45 104.2 40.52 104.05 40.54C103.82 40.41 103.78 40.26 103.76 40.16C103.38 40.18 103.2 40.21 103.02 40.16C102.8 39.88 102.65 39.89 102.52 39.82C102.35 39.55 102.23 39.56 102.09 39.53L102.71 38.5C102.9 38.16 102.86 38.14 102.83 38.12C102.65 37.54 102.83 37.47 102.98 37.46C103.44 37.27 103.52 37.21 103.6 37.17L104.15 37.13C104.25 36.83 104.31 36.73 104.38 36.66L104.12 35.84C103.97 36 103.83 36.1 103.62 36.12C103.44 35.78 103.42 35.56 103.41 35.34C103.25 35.45 103.09 35.52 102.88 35.52L102.74 34.76C102.6 34.86 102.46 34.93 102.27 34.95L102.19 34.28C101.75 33.69 101.77 33.36 101.81 33.07C101.46 32.68 101.5 32.46 101.55 32.26C101.34 31.62 101.4 31.39 101.46 31.2L101.21 30.53C101.32 30.05 101.38 29.95 101.43 29.86L100.99 29.76L101.14 29.27C100.82 29.12 100.71 29.07 100.59 29.03L100.64 28.61C100.31 28.5 100.13 28.43 100.04 28.28C99.87 27.83 99.71 27.78 99.6 27.64C99.5 27.17 99.29 27.01 99.14 26.77L99.09 26.15C98.95 26.01 98.8 25.86 98.71 25.68C98.77 25.16 98.57 24.85 98.48 24.45C98.54 24.01 98.42 23.71 98.33 23.4C98.3 22.82 98.21 22.61 98.17 22.38L98.22 21.96C98.11 21.73 98.02 21.47 98.02 21.13L98.08 20.67C98.53 21.03 98.8 21.3 99.09 21.57L99.53 21.98L100.05 22.36C100.34 22.78 100.68 23.12 101.07 23.43C101.46 23.75 101.87 24.04 102.25 24.34C102.81 24.65 102.96 24.85 103.22 25.05C103.48 25.26 103.76 25.45 104.02 25.68L104.75 26.34C105 26.57 105.26 26.83 105.42 27.17C105.59 27.54 105.7 27.88 105.68 28.34C105.67 28.56 105.59 28.9 105.57 29.12C105.56 29.33 105.55 29.54 105.57 29.75C105.64 30.27 105.96 30.64 106.35 30.87C106.49 30.96 106.67 31.04 106.79 31.03L107.2 30.87C107.75 30.44 107.97 30.2 108.01 29.92L107.71 29.4C107.45 29.3 107.26 29.28 107.28 29.01C107.92 29.16 107.7 28.17 107.07 28.9C106.58 28.21 107.73 28.03 107.91 28.07L108.46 27.98C109.16 28.01 109.53 28.62 109.74 29.02C109.93 29.36 110.04 29.74 110.1 30.15C110.17 29.99 110.22 29.84 110.28 29.69C110.4 29.38 110.49 29.06 110.51 28.71C110.52 28.49 110.52 28.32 110.55 28.14C110.58 27.95 110.64 27.62 110.74 27.45C110.9 27.17 111.09 27.01 111.35 26.8C111.59 26.59 111.86 26.46 112.11 26.28L112.86 25.76L113.86 24.87C114.42 24.3 114.36 24.26 114.62 23.98L115.08 23.52C115.35 23.27 116.24 22.28 116.3 22.15L116.73 21.95L117.26 21.22L117.57 20.81L117.55 21.32C117.54 21.62 117.55 21.87 117.53 22.12C117.5 22.32 117.41 22.5 117.31 22.65L117.21 22.78L117.18 22.77ZM107.69 37.55L107.27 37.19C107.04 37.19 106.87 37.52 106.74 37.82C106.61 38.15 106.48 38.5 106.46 38.84C107.15 39.09 107.81 39.35 108.48 39.62L108.51 37.74C108.26 37.99 108.12 38.08 107.96 38.05L107.69 37.54V37.55ZM70.8 19.48C70.88 32.31 72.79 42.81 76.59 50.94L94.42 38.12V15.76C86.65 15.85 78.86 17.09 70.8 19.48ZM77.43 52.64C81.49 60.4 87.44 65.8 95.36 68.79C103.28 65.8 109.23 60.4 113.29 52.64L95.36 39.77L77.43 52.64ZM114.13 50.94C117.93 42.81 119.84 32.3 119.92 19.48C111.86 17.09 104.08 15.86 96.3 15.76V38.12L114.13 50.94ZM75.46 16.29C79.95 15.22 84.33 14.51 88.65 14.14L89.13 12.16C90.11 7.89999 85.14 7.35999 85.14 7.35999C82 6.83999 82.41 9.53999 82.41 9.53999C76.77 2.23999 86.2 2.01999 89.83 1.77999C90.47 -0.980005 95.81 0.0399948 98.62 1.07999C101.58 2.17999 102.58 10.95 102.85 14.22C106.88 14.6 110.95 15.28 115.12 16.27C116.92 15.06 119.2 14.23 122.24 13.75C130.71 12.41 135.77 13.79 149.49 12.03C164.39 10.12 178.44 3.26999 178.44 3.26999C178.36 5.70999 178.04 9.03999 174 10.66C163.91 14.69 153.07 17.13 141.88 18.61C140.15 18.84 140.22 19.8 140.27 20.61C153.23 19.02 165.82 16.2 177.42 11.16C176.73 13.95 175.48 16.23 172.38 17.52C162.41 21.69 152.24 23.71 140.24 25.09C138.77 25.26 138.82 25.95 138.85 27.03C152.13 25.59 163.27 23.44 174.29 18.64C171.92 22.32 168.55 25.03 164.17 26.78C156.24 29.29 147.95 30.47 137.92 31.47C136.47 31.61 136.47 32.45 136.44 33.4C145.01 32.58 152.37 31.67 159.32 29.98C158.38 32.09 156.45 34.86 152.67 35.48C146.67 36.46 140.8 36.89 135.66 36.62C134.15 36.54 134.1 37.35 133.88 38.28C140 38.81 147.24 38.28 154.55 36.97C152.51 39.03 149.86 42.25 143.42 42.2C139.36 42.17 136.45 42.01 133.12 41.17C131.88 40.86 131.08 41.52 130.66 42.34C134.11 43.37 137.59 43.82 141.54 43.95C140.79 45.16 139.17 47.21 136.46 46.5C134.11 45.89 132.26 45.36 130.48 44.52C129.07 43.86 128.27 44.56 127.85 45.15C130.34 46.6 134.06 47.79 137.74 48.63C137.01 49.36 135.04 50.45 132.94 49.68C130.81 48.9 129.28 48.26 127.72 47.43C126.57 46.82 125.64 47.42 125.16 48.04C127.22 49.29 130.55 50.78 133.91 51.9C133.29 52.34 130.29 53.1 128.61 52.31C126.93 51.52 125.93 51.03 124.69 50.3C123.54 49.63 122.41 50.17 121.95 50.7C123.57 51.75 126.31 53.26 129.2 54.53C127.19 55.36 124.65 55.13 122.05 53.54C121.56 53.24 121.43 53.22 120.92 52.88C119.79 52.12 118.8 52.88 118.46 53.3C120 54.37 121.28 55.2 122.72 55.98C120.15 56.07 117.4 55.6 114.5 54.32C113.48 56.16 112.33 57.91 111.04 59.55L112.98 60.81L111.68 62.07L113.63 63.47C117.86 61.6 121.31 64.12 120.26 68.62C118.91 65.57 117.3 64.66 115.12 65.3C117.21 66.53 118.13 68.35 117.21 71.62C116.04 67.96 113.56 66.56 112.46 67C110.37 67.83 111.49 69.26 112.59 70.84C108.62 70.32 108.49 66.61 110.63 64.65L109.97 63.73L108.62 65.04L107.58 63.34C104.28 66.46 100.25 69.02 95.33 70.82C90.37 69 86.3 66.41 82.98 63.25L81.88 65.05L80.53 63.74L79.88 64.66C82.02 66.62 81.89 70.33 77.92 70.85C79.03 69.28 80.14 67.84 78.05 67.01C76.94 66.57 74.47 67.97 73.29 71.63C72.38 68.36 73.29 66.54 75.38 65.31C73.2 64.66 71.59 65.57 70.24 68.63C69.19 64.14 72.64 61.61 76.87 63.48L78.82 62.08L77.52 60.82L79.56 59.49C78.27 57.85 77.13 56.1 76.12 54.27C73.18 55.59 70.38 56.08 67.77 55.98C69.22 55.21 70.49 54.37 72.03 53.3C71.69 52.87 70.7 52.12 69.57 52.88C69.06 53.22 68.93 53.25 68.44 53.54C65.85 55.13 63.3 55.36 61.29 54.53C64.18 53.26 66.91 51.75 68.54 50.7C68.08 50.17 66.95 49.63 65.81 50.3C64.57 51.03 63.57 51.52 61.9 52.31C60.23 53.1 57.22 52.34 56.6 51.9C59.96 50.78 63.29 49.29 65.35 48.04C64.87 47.42 63.95 46.82 62.79 47.43C61.23 48.26 59.7 48.89 57.57 49.68C55.47 50.45 53.5 49.37 52.77 48.63C56.45 47.78 60.16 46.6 62.65 45.15C62.24 44.56 61.43 43.86 60.02 44.52C58.24 45.35 56.39 45.88 54.04 46.5C51.33 47.2 49.71 45.15 48.96 43.95C52.9 43.83 56.39 43.38 59.83 42.34C59.41 41.53 58.61 40.86 57.38 41.17C54.05 42.01 51.14 42.17 47.08 42.2C40.64 42.25 37.99 39.02 35.95 36.97C43.26 38.28 50.5 38.81 56.62 38.28C56.4 37.35 56.35 36.54 54.84 36.62C49.7 36.9 43.82 36.47 37.82 35.48C34.05 34.86 32.11 32.09 31.17 29.98C38.12 31.67 45.48 32.58 54.05 33.4C54.02 32.45 54.02 31.61 52.57 31.47C42.55 30.47 34.26 29.3 26.33 26.78C21.95 25.03 18.57 22.32 16.21 18.64C27.23 23.45 38.37 25.59 51.65 27.03C51.67 25.95 51.73 25.26 50.26 25.09C38.25 23.71 28.09 21.69 18.12 17.52C15.03 16.23 13.77 13.95 13.09 11.16C24.68 16.2 37.28 19.01 50.24 20.61C50.3 19.8 50.36 18.84 48.64 18.61C37.45 17.13 26.61 14.69 16.52 10.66C12.47 9.03999 12.15 5.70999 12.08 3.26999C12.08 3.26999 26.14 10.12 41.03 12.03C54.75 13.79 59.81 12.41 68.28 13.75C71.33 14.24 73.63 15.07 75.44 16.3L75.46 16.29ZM118.74 44C118.5 44.82 118.25 45.64 117.97 46.45C119.93 45.35 121.16 43.78 121.72 41.78C128.84 41.08 131.49 35.53 130.39 29.66C133.8 27.49 135.41 24.12 135.23 19.72C134.01 20.03 133.51 20.8 133.31 22.38C132.83 25.21 131.19 27.56 127.39 29.22C128.96 35.97 126.12 39.58 120.61 40.62C120.31 42.12 119.64 43.2 118.72 44H118.74ZM72.78 46.56C72.51 45.78 72.26 44.98 72.03 44.18C71.01 43.36 70.26 42.24 69.93 40.63C64.42 39.59 61.58 35.99 63.15 29.23C59.35 27.57 57.71 25.21 57.23 22.39C57.03 20.81 56.53 20.04 55.31 19.73C55.14 24.13 56.75 27.5 60.16 29.67C59.06 35.54 61.71 41.09 68.83 41.79C69.41 43.86 70.71 45.46 72.78 46.56ZM94.39 53.5L94.44 50.62C94.44 49.72 94.67 49.12 95.26 48.74C95.83 49.14 96.09 49.72 96.1 50.62C96.12 51.4 96.1 52.4 96.09 53.51H95.35V49.68L95.18 53.51H94.39V53.5ZM94.51 60.75C94.99 60.71 95.49 60.71 95.99 60.75L95.72 63.12C95.4 63.07 95.1 63.07 94.78 63.12L94.51 60.75ZM91.47 60.01L92.05 59.5C94.22 60.31 96.25 60.27 98.39 59.5L99.01 60.02C96.63 60.72 94.09 60.75 91.47 60.02V60.01ZM94.36 63.55C94.67 63.18 95.87 63.17 96.16 63.59C96.24 63.84 96.21 64.23 96.08 64.42C95.51 64.75 95.03 64.76 94.42 64.42C94.29 64.19 94.29 63.82 94.37 63.56L94.36 63.55ZM95.34 58.78H96.1V59.84C95.85 59.87 95.6 59.89 95.34 59.89V58.78ZM94.41 58.78H95.18V59.89C94.92 59.89 94.67 59.87 94.41 59.83V58.77V58.78ZM88.1 52.47H88.69V53.72H91.36V52.49H93.87V53.75H96.55V52.49H99.12V53.75H101.8V52.49H102.4C102.37 54.6 102.21 56.69 101.8 58.57L88.75 58.6C88.28 56.69 88.15 54.62 88.1 52.49V52.47ZM103.41 47.73C103.42 60.13 102.76 62.46 95.46 66.07C87.53 62.31 87.15 59.94 87.15 48.09L103.41 47.73Z" fill="#231F20"/>
<path fill-rule="evenodd" clip-rule="evenodd" d="M79.8999 85.71H84.9199V84.07H83.5799V75.46H79.8199V77.11H81.3299V84.07H79.91V85.71M87.4499 83.09C87.5999 84.81 88.6299 85.84 90.3499 85.84C92.9299 85.84 94.1699 83.92 94.1699 80.46C94.1699 77 92.9799 75.28 90.4699 75.28C88.5099 75.28 87.3299 76.47 87.3299 78.9C87.3299 80.89 88.5499 81.98 90.1399 81.98C90.8799 81.98 91.4199 81.78 91.9499 81.31C91.9299 83.26 91.2699 84.23 90.4199 84.23C89.6499 84.23 89.4099 83.61 89.2099 82.93L87.4399 83.08L87.4499 83.09ZM91.9499 79.89C91.5399 80.18 91.0999 80.33 90.6699 80.33C89.8999 80.33 89.4199 79.7 89.4199 78.68C89.4199 77.58 89.8299 76.94 90.5199 76.94C91.5899 76.94 91.9399 78.09 91.9599 79.89H91.9499ZM96.5699 85.71H101.59V84.07H100.25V75.46H96.4899V77.11H97.9999V84.07H96.5799V85.71H96.5699ZM104.12 83.09C104.27 84.81 105.3 85.84 107.02 85.84C109.6 85.84 110.84 83.92 110.84 80.46C110.84 77 109.65 75.28 107.14 75.28C105.18 75.28 104 76.47 104 78.9C104 80.89 105.22 81.98 106.81 81.98C107.55 81.98 108.09 81.78 108.62 81.31C108.6 83.26 107.94 84.23 107.09 84.23C106.32 84.23 106.08 83.61 105.88 82.93L104.11 83.08L104.12 83.09ZM108.63 79.89C108.22 80.18 107.78 80.33 107.34 80.33C106.57 80.33 106.09 79.7 106.09 78.68C106.09 77.58 106.5 76.94 107.19 76.94C108.26 76.94 108.61 78.09 108.63 79.89Z" fill="#231F20"/>
</g>
<defs>
<clipPath id="clip0_1_233">
<rect width="194.45" height="154.47" fill="white"/>
</clipPath>
</defs>
</svg>
