<svg width="285" height="68" viewBox="0 0 285 68" fill="none" xmlns="http://www.w3.org/2000/svg">
<path d="M85.3217 15.4404C92.6809 14.4681 99.8047 12.8611 106.437 10.2102C109.098 9.14569 109.303 6.95533 109.354 5.35861C109.354 5.35861 100.112 9.86216 90.3166 11.1211C81.2992 12.2777 77.9727 11.3668 72.4047 12.247C70.4088 12.5643 68.9145 13.1068 67.7272 13.9051C64.9841 13.2603 62.3127 12.8099 59.6617 12.5541C59.4877 10.4046 58.8224 4.64214 56.8777 3.91543C55.0354 3.22966 51.5246 2.56437 51.0948 4.37602C48.7099 4.53979 42.5073 4.68308 46.2125 9.48345C46.2125 9.48345 45.9362 7.71274 48.0037 8.05051C48.0037 8.05051 51.2688 8.40874 50.6239 11.2132L50.3169 12.5131C47.4715 12.7485 44.5953 13.2193 41.6476 13.9256C40.4603 13.117 38.9557 12.5643 36.9393 12.247C31.3713 11.3668 28.0448 12.2777 19.0275 11.1211C9.2425 9.85192 0 5.35861 0 5.35861C0.0511766 6.95533 0.255883 9.15592 2.91707 10.2102C9.54956 12.8611 16.6734 14.4681 24.0326 15.4404C25.1687 15.5939 25.1277 16.2183 25.0868 16.7505C16.571 15.7065 8.29062 13.8539 0.665296 10.5377C1.11565 12.3698 1.94471 13.8744 3.97131 14.7239C10.5322 17.467 17.2056 18.7976 25.1073 19.6983C26.0694 19.8109 26.0387 20.2613 26.0182 20.9777C17.2875 20.0361 9.96921 18.6236 2.7226 15.4609C4.27837 17.8764 6.49943 19.6574 9.37556 20.814C14.5853 22.4721 20.0408 23.2397 26.6221 23.8948C27.574 23.9869 27.574 24.5396 27.5944 25.164C21.965 24.6317 17.1135 24.0279 12.5485 22.9122C13.1626 24.294 14.4421 26.1261 16.919 26.5355C20.8596 27.1803 24.7286 27.4669 28.1062 27.2827C29.099 27.2315 29.1297 27.7638 29.273 28.3676C25.2506 28.7156 20.4911 28.3676 15.6805 27.5079C17.0214 28.8589 18.7614 30.9776 22.9988 30.9469C25.6702 30.9265 27.574 30.8241 29.7746 30.2714C30.5934 30.0667 31.1154 30.5068 31.3918 31.0391C29.1297 31.7146 26.837 32.0114 24.2373 32.0933C24.7286 32.8917 25.793 34.2325 27.574 33.7719C29.1195 33.3727 30.3375 33.0247 31.5043 32.472C32.4358 32.0421 32.9578 32.5027 33.2341 32.8917C31.5965 33.8435 29.1502 34.6214 26.7347 35.1844C27.2157 35.6654 28.5156 36.3819 29.8872 35.8701C31.2894 35.3584 32.2925 34.9387 33.316 34.3962C34.0734 33.9971 34.6773 34.3962 34.9946 34.7954C33.6435 35.6143 31.4532 36.5968 29.2423 37.3338C29.6518 37.6306 31.6272 38.1219 32.7223 37.6101C33.8278 37.0881 34.4828 36.7708 35.2914 36.2898C36.0488 35.8497 36.7858 36.1977 37.0928 36.5559C36.0284 37.2417 34.2269 38.2447 32.3334 39.0738C33.6538 39.6265 35.3221 39.473 37.0314 38.429C37.3487 38.2345 37.4408 38.214 37.7684 37.9888C38.5155 37.4873 39.1604 37.9888 39.3855 38.2652C38.3722 38.9714 37.533 39.5139 36.5811 40.0257C38.2904 40.0871 40.1327 39.7698 42.0672 38.8998C42.7325 40.1076 43.4797 41.2539 44.3292 42.3286L42.9782 43.2089L43.8277 44.0379L42.5483 44.9591C39.7643 43.7309 37.5023 45.389 38.188 48.3368C39.0785 46.3306 40.1327 45.737 41.5759 46.1566C40.1941 46.9652 39.6005 48.1628 40.2044 50.3122C40.9823 47.9069 42.5994 46.9857 43.3262 47.2723C44.6977 47.825 43.971 48.7667 43.2443 49.8004C45.8543 49.4524 45.9362 47.0164 44.5339 45.7268L44.9638 45.1229L45.8543 45.9826L46.581 44.8056C48.7611 46.8834 51.4325 48.5824 54.6976 49.78C57.932 48.5927 60.5829 46.9141 62.7528 44.867L63.4386 45.9826L64.329 45.1229L64.7589 45.7268C63.3567 47.0164 63.4386 49.4524 66.0486 49.8004C65.3219 48.7667 64.5849 47.825 65.9667 47.2723C66.6934 46.9857 68.3208 47.9069 69.0885 50.3122C69.6924 48.1628 69.0885 46.9652 67.7169 46.1566C69.1499 45.7268 70.2144 46.3306 71.1048 48.3368C71.7906 45.389 69.5286 43.7206 66.7446 44.9591L65.4549 44.0379L66.3045 43.2089L65.0353 42.3798C65.8848 41.2949 66.6422 40.1485 67.3075 38.9407C69.2113 39.78 71.023 40.0973 72.7118 40.0359C71.7599 39.5242 70.9206 38.9817 69.9073 38.2754C70.1325 37.9991 70.7875 37.4976 71.5245 37.9991C71.8623 38.2243 71.9441 38.2345 72.2614 38.4392C73.9707 39.4832 75.6391 39.6367 76.9594 39.084C75.0659 38.255 73.2645 37.2519 72.1898 36.5661C72.4968 36.2181 73.2338 35.8599 73.9912 36.3C74.7998 36.7811 75.4651 37.0984 76.5603 37.6204C77.6554 38.1424 79.6309 37.6408 80.0403 37.344C77.8294 36.6071 75.6391 35.6347 74.288 34.8057C74.6053 34.3962 75.2092 33.9971 75.9666 34.4065C76.9902 34.949 77.9932 35.3686 79.3955 35.8804C80.7772 36.3921 82.0771 35.6757 82.5479 35.1946C80.1324 34.6419 77.6862 33.864 76.0485 32.9019C76.3249 32.5129 76.8571 32.0524 77.7783 32.4822C78.9553 33.0349 80.1631 33.3829 81.7086 33.7821C83.4896 34.2427 84.5541 32.9019 85.0453 32.1035C82.4558 32.0217 80.1631 31.7351 77.8909 31.0493C78.1672 30.5171 78.6892 30.0769 79.508 30.2816C81.6984 30.8344 83.6124 30.9367 86.2838 30.9572C90.5213 30.9879 92.2613 28.8692 93.6021 27.5181C88.7915 28.3779 84.0321 28.7259 80.0096 28.3779C80.1529 27.7638 80.1836 27.2315 81.1764 27.2929C84.5541 27.4772 88.4128 27.1906 92.3636 26.5457C94.8406 26.1363 96.12 24.3144 96.7341 22.9224C92.1692 24.0381 87.3278 24.642 81.6984 25.1742C81.7189 24.5499 81.7189 23.9972 82.6708 23.905C89.2623 23.25 94.7075 22.4721 99.9275 20.8242C102.804 19.6778 105.025 17.8969 106.58 15.4711C99.3339 18.6338 92.0156 20.0463 83.2849 20.988C83.2746 20.2817 83.2337 19.8211 84.2061 19.7085C92.0975 18.8078 98.7812 17.4772 105.332 14.7342C107.358 13.8846 108.187 12.3903 108.638 10.5479C101.023 13.8642 92.7321 15.7168 84.2163 16.7608C84.1754 16.2285 84.1344 15.6042 85.2705 15.4507M37.2464 30.6911C32.5688 30.2305 30.8186 26.5765 31.5453 22.728C29.3037 21.295 28.2495 19.0842 28.3621 16.1876C29.1605 16.3923 29.488 16.9041 29.621 17.9378C29.9383 19.8007 31.0233 21.3462 33.5105 22.4414C32.4767 26.8733 34.3498 29.2479 37.9628 29.9336C38.1778 30.9879 38.6691 31.7351 39.3446 32.2673C39.4981 32.7893 39.6619 33.3113 39.8359 33.8333C38.4746 33.1066 37.6251 32.0524 37.2361 30.7013M38.5258 16.0341C43.8174 14.4681 48.9454 13.6492 54.0528 13.5878V28.2858L42.3333 36.7094C39.8359 31.3666 38.577 24.4577 38.5258 16.0238M54.6669 48.4391C49.4571 46.4739 45.5472 42.9223 42.886 37.8251L54.6669 29.3605L66.458 37.8251C63.7866 42.9223 59.8767 46.4739 54.6669 48.4391ZM67.0107 36.7094L55.2913 28.2858V13.5878C60.3987 13.6492 65.5266 14.4681 70.8183 16.0341C70.7671 24.468 69.5081 31.3666 67.0107 36.7197M77.7066 22.7382C78.4333 26.5969 76.6831 30.2407 72.0055 30.7013C71.6371 32.0114 70.8285 33.0452 69.5388 33.7719C69.7231 33.2397 69.8868 32.7074 70.0404 32.1649C70.6442 31.6429 71.0844 30.9265 71.2788 29.9439C74.9021 29.2581 76.765 26.8937 75.7312 22.4516C78.2286 21.3564 79.3136 19.8109 79.6206 17.9481C79.7537 16.9143 80.0812 16.4025 80.8796 16.1978C80.9922 19.0944 79.9379 21.3053 77.6964 22.7382" fill="white"/>
<path d="M50.8705 25.8601C50.6761 26.1057 49.9289 26.8939 49.9289 26.8939L50.3793 26.9757L50.1234 27.2521C49.3967 28.0607 48.0047 28.3063 47.5031 28.3882V27.4875L47.8716 27.3851L48.2401 27.3033C48.6085 27.2009 48.9054 27.0781 49.2227 26.6891C49.2943 26.597 49.3352 26.5049 49.4478 26.29L49.5911 25.7475L49.325 25.3995L49.1101 25.072L48.9668 24.7035C48.9054 24.4578 48.844 24.202 48.8337 23.854V23.5674L48.8951 23.2398C48.9463 23.0351 49.0487 22.8714 49.1612 22.7076C49.3762 22.5438 49.4581 22.5336 49.673 22.5438C49.5092 22.1651 49.2022 21.8376 48.7621 21.5715L49.714 21.4998C49.714 21.6534 49.714 21.9195 49.9084 21.9399C50.0415 21.9502 50.1029 21.8785 50.1336 21.5408L51.1162 21.4691V20.3125L50.1643 20.2818C50.1745 20.0771 50.0927 19.9645 49.9187 19.9543C49.7958 19.9543 49.7242 20.0157 49.673 20.2716L48.5778 20.2921L48.5267 20.0362C48.4448 19.8826 48.1991 19.9748 48.1684 20.2818H47.4827L47.5952 19.4016C47.6976 19.3504 48.2605 19.0638 48.2605 18.1836C48.1991 16.7506 46.9811 16.7404 46.7764 16.7506C46.5615 16.7404 45.3537 16.9144 45.3025 18.245C45.3332 18.9819 45.8552 19.3197 46.0599 19.4425V20.2716L45.4254 20.2614C45.4254 20.0669 45.3537 19.9645 45.2206 19.9441C45.0159 19.9441 45.0057 20.0259 44.9341 20.2818L43.931 20.2614C43.9105 20.0669 43.8286 19.9645 43.6853 19.9543C43.5728 19.9543 43.5113 20.0157 43.4602 20.3023L42.4776 20.2716V21.4487L43.4704 21.4691C43.4704 21.7148 43.5625 21.8888 43.8798 21.7557V21.4998L44.8112 21.5715C44.4735 21.7967 44.2073 22.0628 44.0129 22.3903L43.931 22.6769C44.2073 22.5029 44.4121 22.6564 44.4735 22.6769C44.5861 22.8304 44.627 22.9123 44.6782 23.0556C44.7396 23.2091 44.7805 23.3831 44.7805 23.5571V23.9768C44.7601 24.1201 44.7293 24.2634 44.6679 24.6011L44.5042 25.0515L44.3404 25.3176L44.0538 25.6144L44.0743 26.0341L44.2585 26.4537C44.2995 26.5356 44.3404 26.6073 44.4939 26.7915L44.7703 27.0371L45.1081 27.2009L45.4151 27.3033C45.5994 27.3544 45.7836 27.3851 46.1214 27.467L46.1418 28.4291L45.7631 28.3984C44.9545 28.2961 44.1869 27.815 43.6239 27.293L43.2862 26.986L43.8798 26.9246C42.9075 26.1876 41.976 25.2357 41.9044 23.854C40.9423 24.8775 41.3722 27.3544 42.4059 28.0402L42.498 27.7127L42.7437 27.9481C43.8798 29.033 44.6782 29.4527 45.3128 29.7086C45.6403 29.8416 45.9269 29.944 46.193 30.0668C46.4182 30.1794 46.6434 30.3125 46.8583 30.5172C47.1142 30.3022 47.4212 30.1282 47.7283 29.9747C48.0968 29.7904 48.4755 29.6267 48.803 29.4732C49.5809 29.0944 50.369 28.6134 50.9422 27.7536L51.1878 27.3851L51.3209 27.8048L51.413 28.163C52.2318 27.3135 52.5696 24.6421 51.802 23.7209C51.628 24.4783 51.3516 25.2255 50.8501 25.8601M46.0804 18.4804L46.0292 18.1938C46.0292 17.8868 46.2135 17.6513 46.3875 17.5695C46.5512 17.4876 46.7662 17.5081 46.8071 17.5081L47.1756 17.5899C47.3291 17.6718 47.5441 17.8561 47.5236 18.1529L47.4622 18.4292C46.9606 18.2655 46.5103 18.2859 46.0804 18.4906" fill="white"/>
<path d="M47.1957 17.5795L46.8272 17.4976C46.8272 17.4976 46.5713 17.4772 46.4076 17.559C46.2336 17.6512 46.0596 17.8763 46.0493 18.1834L46.1005 18.47C46.5201 18.2653 46.9807 18.2448 47.4823 18.4086L47.5437 18.1322C47.5641 17.8456 47.3492 17.6512 47.1957 17.5693" fill="white"/>
<path d="M66.3671 28.2037L65.1798 27.303L65.4868 27.1904C65.5073 27.1392 65.5278 27.0676 65.538 26.8629L65.8758 26.9243C65.9577 26.8117 65.9679 26.648 65.9474 26.3102C66.0191 26.3307 66.1112 26.3511 66.2954 26.3102C66.3671 26.1669 66.3568 26.0031 66.2954 25.6756C66.3568 25.6961 66.4387 25.7063 66.6025 25.6142C66.6434 25.389 66.582 25.1843 66.6025 25.0205C66.6434 25.0205 66.7049 25.0103 66.8686 24.8465C66.8891 24.7646 66.8481 24.6725 66.7458 24.4371C66.8379 24.4064 66.9403 24.3552 66.9812 24.1608C66.9403 24.0789 66.8891 24.0072 67.0324 23.6797L66.9403 23.3522C67.0221 23.3215 67.1143 23.2703 67.104 22.8916C67.3087 22.7892 67.4827 22.6562 67.5441 22.3286C67.7284 22.2058 67.8614 22.0113 68.0969 21.4893L68.3118 21.1618L68.3425 20.865C68.4346 20.7524 68.5063 20.6398 68.4141 20.343C68.537 20.1997 68.6291 20.0155 68.6496 19.4935L68.8133 19.1557L68.8645 18.736L69.0794 18.1731L69.1409 18.0912L69.2842 17.7432C69.3046 17.5794 69.2842 17.4157 69.2944 17.2212L69.3149 16.8834L69.1102 17.1496L68.7622 17.6306L68.4858 17.7637C68.4449 17.8456 67.8614 18.5006 67.6874 18.6644L67.3804 18.9612C67.2064 19.1352 67.2473 19.1659 66.8788 19.5446L66.2238 20.128L65.7325 20.4658C65.5687 20.5784 65.3947 20.6705 65.231 20.8036C65.0672 20.9469 64.9341 21.0492 64.8318 21.2335L64.709 21.6838L64.6783 22.0625C64.668 22.2979 64.6066 22.5026 64.5247 22.7073L64.4121 23.0144C64.3712 22.7483 64.2996 22.4924 64.1767 22.2672C64.0334 22.0011 63.7878 21.6019 63.3374 21.5815L62.9792 21.6429C62.8666 21.6224 62.1092 21.735 62.4265 22.1853C62.8359 21.7145 62.9894 22.3593 62.5595 22.257C62.5391 22.431 62.6721 22.4515 62.8359 22.5129L63.0406 22.8609C63.0099 23.0451 62.8666 23.1986 62.5084 23.4852L62.2422 23.5876L61.9557 23.4852C61.6998 23.3317 61.4848 23.0861 61.4439 22.7483V22.3389L61.5053 21.8271C61.5155 21.5201 61.4541 21.3051 61.3415 21.0595C61.2392 20.8343 61.0754 20.6705 60.9014 20.517L60.4204 20.0769C60.2464 19.9233 60.0621 19.7903 59.8984 19.6572C59.7346 19.5242 59.6322 19.3911 59.2638 19.1864C59.0079 18.9817 58.7418 18.7975 58.4859 18.5825C58.23 18.3778 58.0048 18.1526 57.8206 17.8763L57.4828 17.6306L57.1962 17.3543C57.0018 17.1803 56.8278 17.0063 56.5309 16.7606L56.49 17.0677C56.49 17.2929 56.5514 17.4566 56.6231 17.6102L56.5923 17.8865C56.6231 18.0298 56.6742 18.1731 56.6947 18.5518C56.7459 18.7565 56.8278 18.951 56.7971 19.2478C56.8482 19.5139 56.9813 19.7186 56.9403 20.0564L57.1962 20.3635L57.2269 20.7729C57.3191 20.9264 57.4623 21.039 57.534 21.346C57.6056 21.4382 57.708 21.4689 57.8206 21.7657C57.882 21.868 57.9946 21.9192 58.2198 21.9806L58.1891 22.2468C58.2709 22.2672 58.3426 22.3082 58.5473 22.4105L58.4449 22.7278L58.7315 22.7892C58.6906 22.8506 58.6599 22.9121 58.5882 23.2293L58.752 23.6695C58.7111 23.7923 58.6701 23.9458 58.8032 24.3655C58.7725 24.4985 58.7418 24.6418 58.9772 24.8977C58.9567 25.0922 58.9362 25.3071 59.2331 25.6961L59.2842 26.1362L59.5913 26.0134L59.6834 26.5149L60.0314 26.3921C60.0314 26.5354 60.0621 26.6787 60.1747 26.9038L60.5125 26.7196L60.6762 27.2621C60.6762 27.2621 60.5944 27.3747 60.5227 27.5691L60.1645 27.5896C60.1031 27.6203 60.0621 27.6612 59.7551 27.7841C59.6629 27.7841 59.5401 27.8352 59.6629 28.214C59.6834 28.2344 59.7141 28.2447 59.5811 28.4698L59.1716 29.1454C59.2638 29.1556 59.3456 29.1454 59.4582 29.3296C59.5401 29.3808 59.6425 29.3705 59.7858 29.5548C59.8984 29.5855 60.0212 29.5753 60.2668 29.5548C60.2771 29.6264 60.2975 29.7185 60.4613 29.8004C60.5534 29.7902 60.6353 29.7493 60.9219 29.8516C61.0242 29.8209 61.0959 29.78 61.3927 29.8414C61.4746 29.7902 61.536 29.7083 61.7919 29.7185C61.8635 29.6571 61.9045 29.5753 61.9659 29.3808L63.1123 29.9335C63.3272 30.0358 63.5319 30.1484 63.7571 30.2406C63.9925 30.3327 64.2381 30.4146 64.535 30.435C64.7192 30.435 64.8727 30.435 65.0263 30.261C64.7908 29.8721 64.4019 29.6469 64.0027 29.4524L64.3507 29.258C64.3507 29.258 64.4633 29.3398 64.6373 29.3296L64.9137 29.2784L65.1696 29.0635M63.3579 29.1863C62.9178 29.0123 62.4879 28.8383 62.0273 28.6745C62.0375 28.4494 62.1194 28.2242 62.2115 28.0092C62.2934 27.8148 62.406 27.5896 62.5595 27.5998L62.8359 27.8352L63.0099 28.1628C63.1123 28.1832 63.2044 28.1218 63.3681 27.9581L63.3477 29.1863H63.3579ZM64.1358 28.6848V27.6612L65.0058 28.1525L64.1358 28.6848Z" fill="white"/>
<path d="M54.8012 46.6478C59.6015 44.2732 60.0314 42.7379 60.0212 34.5906L49.3355 34.826C49.3355 42.6151 49.5812 44.1811 54.8012 46.6478ZM55.2106 45.5629C54.8319 45.7778 54.5146 45.788 54.1154 45.5629C54.0335 45.4093 54.0233 45.1739 54.0847 44.9999C54.2894 44.7543 55.0775 44.7543 55.272 45.0306C55.3232 45.1944 55.3027 45.4503 55.2208 45.5731M54.1871 43.1575C54.5043 43.1268 54.8319 43.1268 55.1594 43.1575L54.9752 44.7133C54.7705 44.6826 54.5658 44.6826 54.3611 44.7133L54.1871 43.1575ZM52.1912 42.6663L52.5699 42.3285C54.0028 42.8607 55.3232 42.8403 56.7357 42.3285L57.1451 42.6663C55.5791 43.1268 53.9107 43.1473 52.1912 42.6663ZM54.1256 42.5537V41.8577H54.6374V42.5844C54.4736 42.5844 54.2996 42.5741 54.1256 42.5434M54.7398 42.5844V41.8577H55.2413V42.5537C55.0775 42.5741 54.9138 42.5844 54.7398 42.5844ZM54.1461 36.4841C54.1461 35.8905 54.2996 35.5015 54.6886 35.2456C55.0571 35.5118 55.2311 35.8905 55.2413 36.4841C55.2515 36.9959 55.2413 37.6509 55.2413 38.3776H54.75V35.8598L54.6374 38.3776H54.1154L54.1461 36.4841ZM50.3693 38.5312H52.1195V37.7124H53.7572V38.5414H55.5177V37.7124H57.2065V38.5414H58.967V37.7124H59.3559C59.3354 39.0941 59.2331 40.4759 58.967 41.7041L50.3897 41.7246C50.0827 40.4759 49.9906 39.1044 49.9701 37.7124H50.359V38.5312H50.3693Z" fill="white"/>
<path fill-rule="evenodd" clip-rule="evenodd" d="M44.5643 60.179H47.8601V59.094H46.9799V53.4339H44.5029V54.5188H45.4958V59.094H44.5643V60.179ZM49.5285 58.4594C49.6308 59.5955 50.3064 60.2711 51.4322 60.2711C53.1313 60.2711 53.9399 59.0121 53.9399 56.7399C53.9399 54.4676 53.1518 53.3315 51.5039 53.3315C50.2142 53.3315 49.4364 54.1196 49.4364 55.7164C49.4364 57.0265 50.2347 57.743 51.2787 57.743C51.77 57.743 52.118 57.6099 52.466 57.3028C52.4558 58.5822 52.0157 59.2168 51.463 59.2168C50.9512 59.2168 50.7977 58.8074 50.6646 58.3673L49.508 58.4697L49.5285 58.4594ZM52.4865 56.3509C52.2204 56.5352 51.9338 56.6375 51.6472 56.6375C51.1457 56.6375 50.8181 56.2179 50.8181 55.5526C50.8181 54.8259 51.0842 54.4062 51.5448 54.4062C52.2511 54.4062 52.4763 55.1636 52.4865 56.3407M55.5264 60.1687H58.8222V59.0838H57.9419V53.4236H55.4752V54.5086H56.468V59.0838H55.5366V60.1687H55.5264ZM60.4905 58.4492C60.5929 59.5853 61.2684 60.2608 62.3943 60.2608C64.0934 60.2608 64.9122 59.0019 64.9122 56.7297C64.9122 54.4574 64.1241 53.3213 62.4762 53.3213C61.1865 53.3213 60.4086 54.1094 60.4086 55.7061C60.4086 57.0162 61.2172 57.7327 62.251 57.7327C62.7321 57.7327 63.0903 57.5997 63.4383 57.2926C63.4281 58.572 62.9879 59.2066 62.4352 59.2066C61.9337 59.2066 61.7699 58.7972 61.6369 58.3571L60.47 58.4594L60.4905 58.4492ZM63.4485 56.3407C63.1824 56.5249 62.8958 56.6273 62.6092 56.6273C62.0975 56.6273 61.7802 56.2077 61.7802 55.5424C61.7802 54.8156 62.0463 54.396 62.5069 54.396C63.2131 54.396 63.4383 55.1534 63.4485 56.3305" fill="white"/>
<path d="M184.077 6.50647C184.818 6.50647 185.405 7.10321 185.405 7.83471C185.405 8.5662 184.808 9.16295 184.077 9.16295C183.345 9.16295 182.749 8.5662 182.749 7.83471C182.749 7.10321 183.345 6.50647 184.077 6.50647ZM183.009 20.9438V13.6193H181.228V11.6654H185.251V20.9438H187.032V22.8977H181.228V20.9438H183.009ZM134.297 42.9945V37.1426H136.299V38.5671C137.319 40.2995 138.513 41.2332 140.053 41.2332C141.689 41.2332 142.902 40.0686 142.902 38.5189C142.902 35.3523 137.839 36.4496 135.317 33.9279C134.701 33.3119 134.249 32.359 134.249 31.0019C134.249 28.0085 136.53 26.5744 138.955 26.5744C140.245 26.5744 141.477 26.9979 142.574 27.8353V26.7669H144.576V31.6467H142.574V30.5303C141.698 29.2405 140.62 28.6534 139.148 28.6534C137.512 28.6534 136.434 29.4811 136.434 30.7228C136.434 31.2714 136.645 31.7719 136.982 32.0991C138.243 33.36 142.122 33.1482 143.999 35.0251C144.855 35.8817 145.375 37.1907 145.375 38.4997C145.375 41.2332 143.19 43.2544 140.264 43.2544C138.792 43.2544 137.454 42.7346 136.289 41.6663V42.9945H134.287H134.297ZM155.481 26.8439H156.761C156.761 28.7978 156.02 30.0586 154.644 30.0586C153.268 30.0586 151.93 28.6053 151.073 28.6053C150.524 28.6053 150.409 29.0769 150.409 29.8854H149.081C149.081 27.6524 150.082 26.7669 151.198 26.7669C152.459 26.7669 153.884 28.1914 154.644 28.1914C155.193 28.1914 155.452 27.7583 155.472 26.8343M147.002 37.3736C147.002 33.976 149.523 31.4254 152.921 31.4254C156.319 31.4254 158.821 33.9664 158.821 37.3736C158.821 40.7808 156.28 43.3218 152.902 43.3218C149.523 43.3218 147.002 40.7808 147.002 37.3736ZM149.379 37.3736C149.379 39.5584 150.9 41.1754 152.902 41.1754C154.904 41.1754 156.444 39.5584 156.444 37.3736C156.444 35.1887 154.923 33.5717 152.902 33.5717C150.881 33.5717 149.379 35.208 149.379 37.3736ZM158.561 47.9032V45.9109C159.014 45.9782 159.273 46.0071 159.658 46.0071C161.208 46.0071 161.632 45.2949 161.632 43.6971V33.7065H159.899V31.7526H163.874V42.9079C163.874 45.5259 163.73 48.0187 159.851 48.0187C159.379 48.0187 159.023 47.9995 158.571 47.9032M162.681 26.5937C163.422 26.5937 164.009 27.1904 164.009 27.9219C164.009 28.6534 163.412 29.2501 162.681 29.2501C161.949 29.2501 161.352 28.6534 161.352 27.9219C161.352 27.1904 161.949 26.5937 162.681 26.5937ZM177.705 41.031V42.9849H173.807V41.6085C172.402 42.7539 171.43 43.1774 170.188 43.1774C168.051 43.1774 166.386 41.6085 166.386 39.6162C166.386 37.6238 168.167 35.978 170.477 35.978C171.478 35.978 172.643 36.3341 173.547 36.9308V35.4582C173.547 33.8605 172.383 33.2926 171.054 33.2926C169.986 33.2926 169.149 33.745 168.658 34.6208L166.54 34.053C167.493 32.3205 169.11 31.435 171.391 31.435C174.673 31.435 175.79 33.0712 175.79 34.8807V41.0407H177.715L177.705 41.031ZM173.547 40.1263V38.7981C172.594 38.0569 171.593 37.6816 170.65 37.6816C169.409 37.6816 168.513 38.4901 168.513 39.6066C168.513 40.723 169.341 41.4642 170.535 41.4642C171.536 41.4642 172.652 40.9637 173.557 40.1359M181.295 41.0407V33.7161H179.418V31.7622H183.528V33.1675C184.837 32.1184 186.098 31.5697 187.33 31.5697C188.562 31.5697 189.563 32.1857 190.044 33.3311C191.661 32.0702 192.807 31.5697 194.087 31.5697C195.944 31.5697 197.08 32.7151 197.08 34.6593V41.031H199.005V42.9849H194.847V35.1598C194.847 34.0626 194.347 33.514 193.49 33.514C192.585 33.514 191.421 34.0626 190.304 34.9866V41.031H192.229V42.9849H188.071V35.208C188.071 34.0145 187.407 33.6102 186.695 33.6102C185.886 33.6102 184.885 34.0337 183.528 34.9866V41.031H185.453V42.9849H179.245V41.031H181.295V41.0407ZM212.307 41.0407V42.9945H208.149V41.7144C206.888 42.6865 205.656 43.187 204.491 43.187C202.451 43.187 201.373 42.0705 201.373 39.7124V33.7161H199.775V31.7622H203.606V39.5873C203.606 40.7327 204.077 41.2235 204.934 41.2235C205.858 41.2235 207.148 40.6749 208.149 39.799V33.7065H206.224V31.7526H210.391V41.031H212.316L212.307 41.0407ZM225.695 41.0407V42.9945H221.537V41.7144C220.276 42.6865 219.044 43.187 217.87 43.187C215.829 43.187 214.751 42.0705 214.751 39.7124V33.7161H213.163V31.7622H216.994V39.5873C216.994 40.7327 217.466 41.2235 218.322 41.2235C219.246 41.2235 220.536 40.6749 221.537 39.799V33.7065H219.612V31.7526H223.77V41.031H225.695V41.0407ZM227.649 42.9945V39.1446H229.622V39.5296C229.814 40.646 230.835 41.3294 232.307 41.3294C233.78 41.3294 234.617 40.7808 234.617 39.9338C234.617 37.8452 230.671 39.1734 228.525 37.0271C228.005 36.4977 227.649 35.7181 227.649 34.8807C227.649 32.9557 229.314 31.5794 231.595 31.5794C232.615 31.5794 233.587 31.82 234.329 32.2242V31.7719H236.282V35.4775H234.329V34.7845C233.684 33.8412 232.856 33.4081 231.711 33.4081C230.565 33.4081 229.737 33.9567 229.737 34.7845C229.737 36.6613 234.069 35.5641 235.917 37.4313C236.581 38.1051 236.87 38.9809 236.87 39.7606C236.87 41.801 235.137 43.1774 232.567 43.1774C231.354 43.1774 230.43 42.9175 229.622 42.3689V42.9849H227.649V42.9945ZM250.316 37.9318H240.874C241.21 40.1167 242.635 41.3775 244.723 41.3775C246.177 41.3775 247.534 40.7327 248.362 39.5488L250.316 40.4054C249.103 42.2823 247.082 43.3314 244.675 43.3314C241.037 43.3314 238.419 40.8578 238.419 37.3832C238.419 33.9086 241.393 31.435 244.319 31.435C247.438 31.435 250.316 33.8124 250.316 37.9222M240.941 36.3052H248.054C247.698 34.5246 246.129 33.2156 244.367 33.2156C242.606 33.2156 241.278 34.4283 240.941 36.3052ZM263.598 41.0407V42.9945H259.44V41.7144C258.179 42.6865 256.947 43.187 255.783 43.187C253.742 43.187 252.664 42.0705 252.664 39.7124V33.7161H251.076V31.7622H254.907V39.5873C254.907 40.7327 255.388 41.2235 256.235 41.2235C257.159 41.2235 258.449 40.6749 259.45 39.799V33.7065H257.525V31.7526H261.683V41.031H263.608L263.598 41.0407ZM267.284 41.0407V33.7161H265.407V31.7622H269.517V33.1675C270.826 32.1184 272.087 31.5697 273.319 31.5697C274.551 31.5697 275.552 32.1857 276.033 33.3311C277.65 32.0702 278.796 31.5697 280.076 31.5697C281.933 31.5697 283.069 32.7151 283.069 34.6593V41.031H284.994V42.9849H280.836V35.1598C280.836 34.0626 280.336 33.514 279.479 33.514C278.574 33.514 277.41 34.0626 276.293 34.9866V41.031H278.218V42.9849H274.051V35.208C274.051 34.0145 273.386 33.6102 272.674 33.6102C271.866 33.6102 270.865 34.0337 269.508 34.9866V41.031H271.433V42.9849H265.225V41.031H267.265L267.284 41.0407ZM136.251 20.8668V8.7587H134.162V6.73747H147.55V11.5884H145.548V8.7587H138.676V13.5615H144.673V15.5828H138.676V20.8668H145.548V17.9216H147.55V22.8881H134.162V20.8668H136.251ZM161.102 17.8254H151.66C151.987 20.0102 153.422 21.2711 155.51 21.2711C156.964 21.2711 158.311 20.6262 159.148 19.4424L161.102 20.299C159.889 22.1758 157.868 23.2249 155.462 23.2249C151.824 23.2249 149.206 20.7513 149.206 17.2768C149.206 13.8022 152.18 11.3286 155.106 11.3286C158.224 11.3286 161.102 13.7059 161.102 17.8157M151.737 16.1988H158.85C158.494 14.4181 156.925 13.1092 155.164 13.1092C153.402 13.1092 152.074 14.3219 151.737 16.1988ZM162.96 22.8785V19.0285H164.933V19.4135C165.125 20.53 166.146 21.2133 167.618 21.2133C169.091 21.2133 169.928 20.6647 169.928 19.8177C169.928 17.7291 165.982 19.0574 163.836 16.911C163.316 16.3816 162.96 15.602 162.96 14.7646C162.96 12.8397 164.625 11.4633 166.906 11.4633C167.926 11.4633 168.908 11.7039 169.64 12.1082V11.6558H171.593V15.3614H169.64V14.6684C168.995 13.7252 168.167 13.292 167.022 13.292C165.876 13.292 165.048 13.8407 165.048 14.6684C165.048 16.5453 169.38 15.448 171.228 17.3152C171.892 17.989 172.181 18.8649 172.181 19.6541C172.181 21.6946 170.448 23.0709 167.878 23.0709C166.665 23.0709 165.741 22.8111 164.923 22.2625V22.8785H162.95H162.96ZM173.586 13.6V11.6462H175.039V9.91369L177.272 7.89246V11.6558H179.341V13.6097H177.272V20.0968C177.272 21.1941 178.244 21.146 179.341 20.761V22.763C178.822 22.9266 178.225 23.0709 177.705 23.0709C176.136 23.0709 175.039 22.3587 175.039 20.4048V13.6H173.586Z" fill="white"/>
<path d="M135.303 59.3954H134.427V60.2713H137.141V59.3954H136.342V54.1787H137.247V53.3028H134.427V54.1787H135.303V59.3954ZM136.4 56.5849L138.547 59.3954H137.796V60.2713H140.625V59.3954H139.875L137.68 56.5849L139.817 54.1691H140.558V53.2932H137.834V54.1691H138.633L136.41 56.5849H136.4Z" fill="white"/>
<path d="M141.839 59.3952H141.078V60.271H143.648V59.3952H142.888V54.1785H143.648V53.3026H141.078V54.1785H141.839V59.3952Z" fill="white"/>
<path d="M145.111 59.3952H144.119V60.271H146.978V59.3952H145.977V54.3902H145.996L149.297 60.3384H150.395V54.1785H151.425V53.3026H148.556V54.1785H149.528V58.7214H149.509L146.497 53.3026H144.119V54.1785H145.111V59.3952Z" fill="white"/>
<path d="M152.426 54.1785V59.3952H151.483V60.271H154.659C157.161 60.271 158.297 58.9717 158.297 56.7195C158.297 55.0447 157.44 53.3026 154.745 53.3026H151.473V54.1785H152.416H152.426ZM153.475 54.1785H154.726C156.497 54.1785 157.238 55.2661 157.238 56.758C157.238 58.2498 156.632 59.4048 154.707 59.4048H153.475V54.1881V54.1785Z" fill="white"/>
<path d="M159.501 59.3952H158.548V60.271H161.455V59.3952H160.55V57.0082H161.541L163.12 60.271H164.631V59.3952H163.774L162.542 56.8638C163.476 56.6328 163.976 56.0168 163.976 55.1217C163.976 54.063 163.331 53.3026 161.763 53.3026H158.538V54.1785H159.491V59.3952H159.501ZM160.55 56.1323V54.1689H161.82C162.484 54.1689 162.918 54.4961 162.918 55.1121C162.918 55.5741 162.715 56.1227 161.724 56.1227H160.54L160.55 56.1323Z" fill="white"/>
<path d="M168.964 57.8167L169.474 59.3952H168.617V60.271H171.341V59.3952H170.562L168.685 54.0822H169.503V53.3026H165.942V54.0822H166.76L164.854 59.3952H164.017V60.271H166.769V59.3952H165.922L166.471 57.8167H168.974H168.964ZM168.694 57.0082H166.712L167.674 54.0822H167.77L168.694 57.0082Z" fill="white"/>
<path d="M172.53 59.3952H171.606V60.271H176.717V57.0275H175.754V59.3952H173.579V54.1785H174.455V53.3026H171.606V54.1785H172.53V59.3952Z" fill="white"/>
<path d="M180.439 59.3952H179.515V60.271H184.626V57.0275H183.654V59.3952H181.478V54.1785H182.364V53.3026H179.515V54.1785H180.439V59.3952Z" fill="white"/>
<path d="M189.579 57.8167L190.089 59.3952H189.233V60.271H191.956V59.3952H191.177L189.3 54.0822H190.118V53.3026H186.557V54.0822H187.375L185.469 59.3952H184.632V60.271H187.385V59.3952H186.538L187.086 57.8167H189.589H189.579ZM189.31 57.0082H187.327L188.289 54.0822H188.386L189.31 57.0082Z" fill="white"/>
<path d="M193.062 59.3952H192.301V60.271H194.862V59.3952H194.101V54.1785H194.862V53.3026H192.301V54.1785H193.062V59.3952Z" fill="white"/>
<path d="M196.374 54.1785V59.3952H195.43V60.271H198.607C201.109 60.271 202.245 58.9717 202.245 56.7195C202.245 55.0447 201.388 53.3026 198.693 53.3026H195.421V54.1785H196.364H196.374ZM197.423 54.1785H198.674C200.445 54.1785 201.186 55.2661 201.186 56.758C201.186 58.2498 200.58 59.4048 198.655 59.4048H197.423V54.1881V54.1785Z" fill="white"/>
<path d="M202.773 56.787C202.773 58.8948 204.275 60.3771 206.373 60.3771C208.471 60.3771 209.973 58.8756 209.973 56.787C209.973 54.6984 208.462 53.1873 206.373 53.1873C204.284 53.1873 202.773 54.6887 202.773 56.787ZM203.919 56.787C203.919 55.2759 204.987 54.1113 206.373 54.1113C207.759 54.1113 208.827 55.2759 208.827 56.787C208.827 58.2981 207.759 59.4531 206.373 59.4531C204.987 59.4531 203.919 58.2885 203.919 56.787Z" fill="white"/>
<path d="M211.108 59.3952H210.117V60.271H212.975V59.3952H211.974V54.3902H211.994L215.295 60.3384H216.392V54.1785H217.422V53.3026H214.563V54.1785H215.536V58.7214H215.516L212.494 53.3026H210.117V54.1785H211.108V59.3952Z" fill="white"/>
<path d="M218.229 59.3952H217.334V60.271H223.099V58.1247H222.242V59.3952H219.278V57.1237H221.857V56.2478H219.278V54.1785H222.242V55.3912H223.099V53.3026H217.334V54.1785H218.229V59.3952Z" fill="white"/>
<path d="M224.541 59.3952H223.588V60.271H226.495V59.3952H225.59V57.0082H226.582L228.16 60.271H229.671V59.3952H228.815L227.583 56.8638C228.516 56.6328 229.017 56.0168 229.017 55.1217C229.017 54.063 228.372 53.3026 226.803 53.3026H223.579V54.1785H224.531V59.3952H224.541ZM225.59 56.1323V54.1689H226.861C227.525 54.1689 227.958 54.4961 227.958 55.1121C227.958 55.5741 227.756 56.1227 226.764 56.1227H225.59V56.1323Z" fill="white"/>
<path d="M230.931 59.3952H230.171V60.271H232.731V59.3952H231.97V54.1785H232.731V53.3026H230.171V54.1785H230.931V59.3952Z" fill="white"/>
<path d="M236.732 59.3952H235.875V60.271H238.339V59.3952H237.589V54.1785H237.608L239.956 60.3384H240.168L242.536 54.1689H242.555V59.3952H241.804V60.271H244.365V59.3952H243.518V54.1785H244.365V53.3026H241.929L240.091 58.0766L238.282 53.3026H235.875V54.1785H236.732V59.3952Z" fill="white"/>
<path d="M249.5 54.1787V58.1249C249.5 59.097 249.086 59.5398 248.056 59.5398C247.267 59.5398 246.66 59.2029 246.66 58.2019V54.1691H247.469V53.2932H244.735V54.1691H245.611V58.173C245.611 59.3665 246.121 60.3771 248.133 60.3771C249.24 60.3771 250.549 59.9729 250.549 58.1827V54.1691H251.425V53.2932H248.691V54.1691H249.5V54.1787Z" fill="white"/>
<path d="M256.038 54.1787V58.1249C256.038 59.097 255.624 59.5398 254.594 59.5398C253.805 59.5398 253.199 59.2029 253.199 58.2019V54.1691H254.007V53.2932H251.274V54.1691H252.15V58.173C252.15 59.3665 252.66 60.3771 254.671 60.3771C255.778 60.3771 257.087 59.9729 257.087 58.1827V54.1691H257.963V53.2932H255.23V54.1691H256.038V54.1787Z" fill="white"/>
<path d="M258.434 60.271H259.3V59.6935C259.801 60.1555 260.378 60.3769 261.014 60.3769C262.274 60.3769 263.218 59.501 263.218 58.3268C263.218 57.7589 262.996 57.2007 262.621 56.8253C261.812 56.0168 260.138 56.1034 259.589 55.5644C259.445 55.4201 259.358 55.2083 259.358 54.9677C259.358 54.4383 259.82 54.0726 260.532 54.0726C261.168 54.0726 261.63 54.3325 262.005 54.8811V55.3623H262.871V53.2545H262.005V53.7165C261.533 53.3603 261.004 53.1678 260.446 53.1678C259.397 53.1678 258.415 53.7838 258.415 55.0736C258.415 55.6607 258.607 56.0649 258.877 56.3344C259.964 57.4221 262.149 56.9504 262.149 58.3172C262.149 58.9813 261.63 59.4914 260.917 59.4914C260.253 59.4914 259.733 59.0872 259.3 58.346V57.7301H258.434V60.2518V60.271Z" fill="white"/>
<path d="M264.518 59.3952H263.614V60.271H269.389V58.1247H268.532V59.3952H265.567V57.1237H268.147V56.2478H265.567V54.1785H268.532V55.3912H269.389V53.3026H263.614V54.1785H264.518V59.3952Z" fill="white"/>
<path d="M274.633 54.1787V58.1249C274.633 59.097 274.22 59.5398 273.19 59.5398C272.4 59.5398 271.794 59.2029 271.794 58.2019V54.1691H272.603V53.2932H269.869V54.1691H270.745V58.173C270.745 59.3665 271.255 60.3771 273.267 60.3771C274.374 60.3771 275.683 59.9729 275.683 58.1827V54.1691H276.558V53.2932H273.825V54.1691H274.633V54.1787Z" fill="white"/>
<path d="M277.367 59.3952H276.521V60.271H278.984V59.3952H278.234V54.1785H278.253L280.601 60.3384H280.813L283.181 54.1689H283.2V59.3952H282.449V60.271H285V59.3952H284.163V54.1785H285V53.3026H282.575L280.736 58.0766L278.917 53.3026H276.521V54.1785H277.367V59.3952Z" fill="white"/>
<path d="M123.55 0H122.357V67.6824H123.55V0Z" fill="white"/>
<path d="M123.55 0H122.357V67.6824H123.55V0Z" fill="white"/>
</svg>
